# Created by Kenney (www.kenney.nl)

mtllib arbol.mtl

v 2 7 2
v 2 7 -2
v 0 7 2
v 0 7 -2
v 0 8 -2
v 0 8 2
v 2 8 -2
v 2 8 2
v -1 7 2
v -1 7 -2
v -3 7 2
v -3 7 -2
v -3 8 -2
v -3 8 2
v -1 8 -2
v -1 8 2
v -3 7 0.5
v -3 7 -0.5
v -5 7 0.5
v -5 7 -0.5
v -5 8 -0.5
v -5 8 0.5
v -3 8 -0.5
v -3 8 0.5
v 1 7 2
v 1 7 -2
v 1 8 -2
v 1 8 2
v 3 4 2
v 3 4 -2
v 2 4 2
v 2 4 -2
v 3 7 -2
v 3 7 2
v -2 4 2
v -2 4 -2
v -3 4 2
v -3 4 -2
v -2 7 -2
v -2 7 2
v -3 6 2
v -3 6 -2
v -5 6 2
v -5 6 -2
v -5 7 -2
v -5 7 2
v 2 3 2
v 2 3 -2
v -1 3 2
v -1 3 -2
v -1 6 -2
v -1 6 2
v 2 6 -2
v 2 6 2
v -1 5 2
v -1 5 -2
v -2 5 2
v -2 5 -2
v -2 6 -2
v -2 6 2
v -3 5 2
v -3 5 -2
v -5 5 2
v -5 5 -2
v -1 4 2
v -1 4 -2
v -3 4 0.5
v -3 4 -0.5
v -4 4 0.5
v -4 4 -0.5
v -4 5 -0.5
v -4 5 0.5
v -3 5 -0.5
v -3 5 0.5
v -4 3 2
v -4 3 -2
v -5 3 2
v -5 3 -2
v -4 5 -2
v -4 5 2
v -3 2 2
v -3 2 -2
v -4 2 2
v -4 2 -2
v -4 4 -2
v -4 4 2
v 1 2 0.5
v 1 2 -0.5
v 0 2 0.5
v 0 2 -0.5
v 0 3 -0.5
v 0 3 0.5
v 1 3 -0.5
v 1 3 0.5
v 0 2 2
v 0 2 -2
v -2 2 2
v -2 2 -2
v -2 3 -2
v -2 3 2
v 0 3 -2
v 0 3 2
v -4 2 0.5
v -4 2 -0.5
v -5 2 0.5
v -5 2 -0.5
v -5 3 -0.5
v -5 3 0.5
v -4 3 -0.5
v -4 3 0.5
v -2 2 0.5
v -2 2 -0.5
v -3 2 0.5
v -3 2 -0.5
v -2 4 -0.5
v -2 4 0.5
v 2 2 0.5
v 2 2 -0.5
v 2 3 -0.5
v 2 3 0.5
v 1 -1 0.5
v 1 -1 -0.5
v 0 -1 0.5
v 0 -1 -0.5
v -1 -1 0.5
v -1 -1 -0.5
v -2 -1 0.5
v -2 -1 -0.5
v -1 2 -0.5
v -1 2 0.5
v 0 -2 0.5
v 0 -2 -0.5
v -1 -2 0.5
v -1 -2 -0.5
v -1 0 -0.5
v -1 0 0.5
v 0 0 -0.5
v 0 0 0.5

vn 0 -1 0
vn -1 0 0
vn 0 0 -1
vn 0 0 1
vn 1 0 0
vn 0 1 0

vt 0 0

usemtl color9

f 3/1/1 2/1/1 1/1/1
f 2/1/1 3/1/1 4/1/1
f 3/1/2 5/1/2 4/1/2
f 5/1/2 3/1/2 6/1/2
f 5/1/3 2/1/3 4/1/3
f 2/1/3 5/1/3 7/1/3
f 8/1/4 3/1/4 1/1/4
f 3/1/4 8/1/4 6/1/4
f 8/1/5 2/1/5 7/1/5
f 2/1/5 8/1/5 1/1/5
f 5/1/6 8/1/6 7/1/6
f 8/1/6 5/1/6 6/1/6
f 11/1/1 10/1/1 9/1/1
f 10/1/1 11/1/1 12/1/1
f 11/1/2 13/1/2 12/1/2
f 13/1/2 11/1/2 14/1/2
f 13/1/3 10/1/3 12/1/3
f 10/1/3 13/1/3 15/1/3
f 16/1/4 11/1/4 9/1/4
f 11/1/4 16/1/4 14/1/4
f 16/1/5 10/1/5 15/1/5
f 10/1/5 16/1/5 9/1/5
f 13/1/6 16/1/6 15/1/6
f 16/1/6 13/1/6 14/1/6
f 19/1/1 18/1/1 17/1/1
f 18/1/1 19/1/1 20/1/1
f 19/1/2 21/1/2 20/1/2
f 21/1/2 19/1/2 22/1/2
f 21/1/3 18/1/3 20/1/3
f 18/1/3 21/1/3 23/1/3
f 24/1/4 19/1/4 17/1/4
f 19/1/4 24/1/4 22/1/4
f 24/1/5 18/1/5 23/1/5
f 18/1/5 24/1/5 17/1/5
f 21/1/6 24/1/6 23/1/6
f 24/1/6 21/1/6 22/1/6
f 25/1/1 2/1/1 1/1/1
f 2/1/1 25/1/1 26/1/1
f 25/1/2 27/1/2 26/1/2
f 27/1/2 25/1/2 28/1/2
f 27/1/3 2/1/3 26/1/3
f 2/1/3 27/1/3 7/1/3
f 8/1/4 25/1/4 1/1/4
f 25/1/4 8/1/4 28/1/4
f 8/1/5 2/1/5 7/1/5
f 2/1/5 8/1/5 1/1/5
f 27/1/6 8/1/6 7/1/6
f 8/1/6 27/1/6 28/1/6
f 31/1/1 30/1/1 29/1/1
f 30/1/1 31/1/1 32/1/1
f 31/1/2 2/1/2 32/1/2
f 2/1/2 31/1/2 1/1/2
f 2/1/3 30/1/3 32/1/3
f 30/1/3 2/1/3 33/1/3
f 34/1/4 31/1/4 29/1/4
f 31/1/4 34/1/4 1/1/4
f 34/1/5 30/1/5 33/1/5
f 30/1/5 34/1/5 29/1/5
f 2/1/6 34/1/6 33/1/6
f 34/1/6 2/1/6 1/1/6
f 37/1/1 36/1/1 35/1/1
f 36/1/1 37/1/1 38/1/1
f 37/1/2 12/1/2 38/1/2
f 12/1/2 37/1/2 11/1/2
f 12/1/3 36/1/3 38/1/3
f 36/1/3 12/1/3 39/1/3
f 40/1/4 37/1/4 35/1/4
f 37/1/4 40/1/4 11/1/4
f 40/1/5 36/1/5 39/1/5
f 36/1/5 40/1/5 35/1/5
f 12/1/6 40/1/6 39/1/6
f 40/1/6 12/1/6 11/1/6
f 43/1/1 42/1/1 41/1/1
f 42/1/1 43/1/1 44/1/1
f 43/1/2 45/1/2 44/1/2
f 45/1/2 43/1/2 46/1/2
f 45/1/3 42/1/3 44/1/3
f 42/1/3 45/1/3 12/1/3
f 11/1/4 43/1/4 41/1/4
f 43/1/4 11/1/4 46/1/4
f 11/1/5 42/1/5 12/1/5
f 42/1/5 11/1/5 41/1/5
f 45/1/6 11/1/6 12/1/6
f 11/1/6 45/1/6 46/1/6
f 49/1/1 48/1/1 47/1/1
f 48/1/1 49/1/1 50/1/1
f 49/1/2 51/1/2 50/1/2
f 51/1/2 49/1/2 52/1/2
f 51/1/3 48/1/3 50/1/3
f 48/1/3 51/1/3 53/1/3
f 54/1/4 49/1/4 47/1/4
f 49/1/4 54/1/4 52/1/4
f 54/1/5 48/1/5 53/1/5
f 48/1/5 54/1/5 47/1/5
f 51/1/6 54/1/6 53/1/6
f 54/1/6 51/1/6 52/1/6
f 57/1/1 56/1/1 55/1/1
f 56/1/1 57/1/1 58/1/1
f 57/1/2 59/1/2 58/1/2
f 59/1/2 57/1/2 60/1/2
f 59/1/3 56/1/3 58/1/3
f 56/1/3 59/1/3 51/1/3
f 52/1/4 57/1/4 55/1/4
f 57/1/4 52/1/4 60/1/4
f 52/1/5 56/1/5 51/1/5
f 56/1/5 52/1/5 55/1/5
f 59/1/6 52/1/6 51/1/6
f 52/1/6 59/1/6 60/1/6
f 63/1/1 62/1/1 61/1/1
f 62/1/1 63/1/1 64/1/1
f 63/1/2 44/1/2 64/1/2
f 44/1/2 63/1/2 43/1/2
f 44/1/3 62/1/3 64/1/3
f 62/1/3 44/1/3 42/1/3
f 41/1/4 63/1/4 61/1/4
f 63/1/4 41/1/4 43/1/4
f 41/1/5 62/1/5 42/1/5
f 62/1/5 41/1/5 61/1/5
f 44/1/6 41/1/6 42/1/6
f 41/1/6 44/1/6 43/1/6
f 35/1/1 66/1/1 65/1/1
f 66/1/1 35/1/1 36/1/1
f 35/1/2 58/1/2 36/1/2
f 58/1/2 35/1/2 57/1/2
f 58/1/3 66/1/3 36/1/3
f 66/1/3 58/1/3 56/1/3
f 55/1/4 35/1/4 65/1/4
f 35/1/4 55/1/4 57/1/4
f 55/1/5 66/1/5 56/1/5
f 66/1/5 55/1/5 65/1/5
f 58/1/6 55/1/6 56/1/6
f 55/1/6 58/1/6 57/1/6
f 69/1/1 68/1/1 67/1/1
f 68/1/1 69/1/1 70/1/1
f 69/1/2 71/1/2 70/1/2
f 71/1/2 69/1/2 72/1/2
f 71/1/3 68/1/3 70/1/3
f 68/1/3 71/1/3 73/1/3
f 74/1/4 69/1/4 67/1/4
f 69/1/4 74/1/4 72/1/4
f 74/1/5 68/1/5 73/1/5
f 68/1/5 74/1/5 67/1/5
f 71/1/6 74/1/6 73/1/6
f 74/1/6 71/1/6 72/1/6
f 77/1/1 76/1/1 75/1/1
f 76/1/1 77/1/1 78/1/1
f 77/1/2 64/1/2 78/1/2
f 64/1/2 77/1/2 63/1/2
f 64/1/3 76/1/3 78/1/3
f 76/1/3 64/1/3 79/1/3
f 80/1/4 77/1/4 75/1/4
f 77/1/4 80/1/4 63/1/4
f 80/1/5 76/1/5 79/1/5
f 76/1/5 80/1/5 75/1/5
f 64/1/6 80/1/6 79/1/6
f 80/1/6 64/1/6 63/1/6
f 83/1/1 82/1/1 81/1/1
f 82/1/1 83/1/1 84/1/1
f 83/1/2 85/1/2 84/1/2
f 85/1/2 83/1/2 86/1/2
f 85/1/3 82/1/3 84/1/3
f 82/1/3 85/1/3 38/1/3
f 37/1/4 83/1/4 81/1/4
f 83/1/4 37/1/4 86/1/4
f 37/1/5 82/1/5 38/1/5
f 82/1/5 37/1/5 81/1/5
f 85/1/6 37/1/6 38/1/6
f 37/1/6 85/1/6 86/1/6
f 89/1/1 88/1/1 87/1/1
f 88/1/1 89/1/1 90/1/1
f 89/1/2 91/1/2 90/1/2
f 91/1/2 89/1/2 92/1/2
f 91/1/3 88/1/3 90/1/3
f 88/1/3 91/1/3 93/1/3
f 94/1/4 89/1/4 87/1/4
f 89/1/4 94/1/4 92/1/4
f 94/1/5 88/1/5 93/1/5
f 88/1/5 94/1/5 87/1/5
f 91/1/6 94/1/6 93/1/6
f 94/1/6 91/1/6 92/1/6
f 97/1/1 96/1/1 95/1/1
f 96/1/1 97/1/1 98/1/1
f 97/1/2 99/1/2 98/1/2
f 99/1/2 97/1/2 100/1/2
f 99/1/3 96/1/3 98/1/3
f 96/1/3 99/1/3 101/1/3
f 102/1/4 97/1/4 95/1/4
f 97/1/4 102/1/4 100/1/4
f 102/1/5 96/1/5 101/1/5
f 96/1/5 102/1/5 95/1/5
f 99/1/6 102/1/6 101/1/6
f 102/1/6 99/1/6 100/1/6
f 105/1/1 104/1/1 103/1/1
f 104/1/1 105/1/1 106/1/1
f 105/1/2 107/1/2 106/1/2
f 107/1/2 105/1/2 108/1/2
f 107/1/3 104/1/3 106/1/3
f 104/1/3 107/1/3 109/1/3
f 110/1/4 105/1/4 103/1/4
f 105/1/4 110/1/4 108/1/4
f 110/1/5 104/1/5 109/1/5
f 104/1/5 110/1/5 103/1/5
f 107/1/6 110/1/6 109/1/6
f 110/1/6 107/1/6 108/1/6
f 43/1/1 42/1/1 41/1/1
f 42/1/1 43/1/1 44/1/1
f 43/1/2 45/1/2 44/1/2
f 45/1/2 43/1/2 46/1/2
f 45/1/3 42/1/3 44/1/3
f 42/1/3 45/1/3 12/1/3
f 11/1/4 43/1/4 41/1/4
f 43/1/4 11/1/4 46/1/4
f 11/1/5 42/1/5 12/1/5
f 42/1/5 11/1/5 41/1/5
f 45/1/6 11/1/6 12/1/6
f 11/1/6 45/1/6 46/1/6
f 57/1/1 56/1/1 55/1/1
f 56/1/1 57/1/1 58/1/1
f 57/1/2 59/1/2 58/1/2
f 59/1/2 57/1/2 60/1/2
f 59/1/3 56/1/3 58/1/3
f 56/1/3 59/1/3 51/1/3
f 52/1/4 57/1/4 55/1/4
f 57/1/4 52/1/4 60/1/4
f 52/1/5 56/1/5 51/1/5
f 56/1/5 52/1/5 55/1/5
f 59/1/6 52/1/6 51/1/6
f 52/1/6 59/1/6 60/1/6

usemtl color0

f 113/1/1 112/1/1 111/1/1
f 112/1/1 113/1/1 114/1/1
f 113/1/2 68/1/2 114/1/2
f 68/1/2 113/1/2 67/1/2
f 68/1/3 112/1/3 114/1/3
f 112/1/3 68/1/3 115/1/3
f 116/1/4 113/1/4 111/1/4
f 113/1/4 116/1/4 67/1/4
f 116/1/5 112/1/5 115/1/5
f 112/1/5 116/1/5 111/1/5
f 68/1/6 116/1/6 115/1/6
f 116/1/6 68/1/6 67/1/6
f 87/1/1 118/1/1 117/1/1
f 118/1/1 87/1/1 88/1/1
f 87/1/2 93/1/2 88/1/2
f 93/1/2 87/1/2 94/1/2
f 93/1/3 118/1/3 88/1/3
f 118/1/3 93/1/3 119/1/3
f 120/1/4 87/1/4 117/1/4
f 87/1/4 120/1/4 94/1/4
f 120/1/5 118/1/5 119/1/5
f 118/1/5 120/1/5 117/1/5
f 93/1/6 120/1/6 119/1/6
f 120/1/6 93/1/6 94/1/6
f 123/1/1 122/1/1 121/1/1
f 122/1/1 123/1/1 124/1/1
f 123/1/2 90/1/2 124/1/2
f 90/1/2 123/1/2 89/1/2
f 90/1/3 122/1/3 124/1/3
f 122/1/3 90/1/3 88/1/3
f 87/1/4 123/1/4 121/1/4
f 123/1/4 87/1/4 89/1/4
f 87/1/5 122/1/5 88/1/5
f 122/1/5 87/1/5 121/1/5
f 90/1/6 87/1/6 88/1/6
f 87/1/6 90/1/6 89/1/6
f 127/1/1 126/1/1 125/1/1
f 126/1/1 127/1/1 128/1/1
f 127/1/2 112/1/2 128/1/2
f 112/1/2 127/1/2 111/1/2
f 112/1/3 126/1/3 128/1/3
f 126/1/3 112/1/3 129/1/3
f 130/1/4 127/1/4 125/1/4
f 127/1/4 130/1/4 111/1/4
f 130/1/5 126/1/5 129/1/5
f 126/1/5 130/1/5 125/1/5
f 112/1/6 130/1/6 129/1/6
f 130/1/6 112/1/6 111/1/6
f 133/1/1 132/1/1 131/1/1
f 132/1/1 133/1/1 134/1/1
f 133/1/2 135/1/2 134/1/2
f 135/1/2 133/1/2 136/1/2
f 135/1/3 132/1/3 134/1/3
f 132/1/3 135/1/3 137/1/3
f 138/1/4 133/1/4 131/1/4
f 133/1/4 138/1/4 136/1/4
f 138/1/5 132/1/5 137/1/5
f 132/1/5 138/1/5 131/1/5
f 135/1/6 138/1/6 137/1/6
f 138/1/6 135/1/6 136/1/6

