# Created by Kenney (www.kenney.nl)

mtllib pium.mtl

v 4 1 -1.5
v 4 2 -1.5
v 4 1 1.5
v 4 2 1.5
v 5 1 -1.5
v 5 1 1.5
v 4 0 1.5
v 4 0 -1.5
v 3 2 -1.5
v 3 3 -1.5
v 3 2 1.5
v 3 3 1.5
v 3 -1 1.5
v 3 0 1.5
v 3 -1 -1.5
v 3 0 -1.5
v 2 3 -1.5
v 2 4 -1.5
v 2 3 1.5
v 2 4 1.5
v 2 -2 1.5
v 2 -1 1.5
v 2 -2 -1.5
v 2 -1 -1.5
v 1 -4 -1.5
v 1.034074 -3.741181 -1.5
v 1 -3 -1.5
v 1.133975 -3.5 -1.5
v 1.292893 -3.292893 -1.5
v 1.5 -3.133975 -1.5
v 1.741181 -3.034074 -1.5
v 2 -3 -1.5
v 1 -4 1.5
v 1 -3 1.5
v 1.034074 -3.741181 1.5
v 1.133975 -3.5 1.5
v 1.292893 -3.292893 1.5
v 1.5 -3.133975 1.5
v 1.741181 -3.034074 1.5
v 2 -3 1.5
v 1.741181 -4.965926 -1
v 1.741181 -4.965926 1
v 1.5 -4.866025 -1
v 1.5 -4.866025 1
v 1.292893 -4.707107 -1
v 1.292893 -4.707107 1
v 1.133975 -4.5 1
v 1.133975 -4.5 -1
v 1.034074 -4.258819 1
v 1.034074 -4.258819 -1
v 2 -5 1
v 2 -5 -1
v 1 -4 1
v 1 -4 -1
v 1 -5 1
v 1 -5 -1
v 1.258819 -6.965926 1
v 1.258819 -6.965926 -1
v 1 -7 1
v 1 -7 -1
v 1.5 -6.866025 -1
v 1.5 -6.866025 1
v 1.707107 -6.707107 -1
v 1.707107 -6.707107 1
v 1.866025 -6.5 1
v 1.866025 -6.5 -1
v 1.965926 -6.258819 1
v 1.965926 -6.258819 -1
v 2 -6 1
v 2 -6 -1
v 1 -6 -1
v 1 -6 1
v 0.741181 -4.965926 -0.5
v 0.741181 -4.965926 0.5
v 0.5 -4.866025 -0.5
v 0.5 -4.866025 0.5
v 0.2928932 -4.707107 -0.5
v 0.2928932 -4.707107 0.5
v 0.1339746 -4.5 0.5
v 0.1339746 -4.5 -0.5
v 0.03407419 -4.258819 0.5
v 0.03407419 -4.258819 -0.5
v 1 -5 0.5
v 1 -5 -0.5
v 0 -4 0.5
v 0 -4 -0.5
v 0 -5 0.5
v 0 -5 -0.5
v 0.258819 -5.965926 0.5
v 0.258819 -5.965926 -0.5
v 0 -6 0.5
v 0 -6 -0.5
v 0.5 -5.866025 -0.5
v 0.5 -5.866025 0.5
v 0.7071068 -5.707107 -0.5
v 0.7071068 -5.707107 0.5
v 0.8660254 -5.5 0.5
v 0.8660254 -5.5 -0.5
v 0.9659258 -5.258819 0.5
v 0.9659258 -5.258819 -0.5
v 5.960464E-08 -7 1
v 5.960464E-08 -7 -1
v 1 -6.5 -1
v 1 -6.5 1
v 0 -6.5 -1
v 0 -6.5 1
v -1 -5 0.5
v -1 -5 -0.5
v -0.741181 -4.965926 -0.5
v -0.741181 -4.965926 0.5
v -0.5 -4.866025 0.5
v -0.5 -4.866025 -0.5
v -0.2928932 -4.707107 0.5
v -0.2928932 -4.707107 -0.5
v -0.1339746 -4.5 -0.5
v -0.1339746 -4.5 0.5
v -0.03407419 -4.258819 -0.5
v -0.03407419 -4.258819 0.5
v -0.5 -5.866025 0.5
v -0.5 -5.866025 -0.5
v -0.7071068 -5.707107 0.5
v -0.7071068 -5.707107 -0.5
v -0.258819 -5.965926 -0.5
v -0.258819 -5.965926 0.5
v -0.8660254 -5.5 -0.5
v -0.8660254 -5.5 0.5
v -0.9659258 -5.258819 -0.5
v -0.9659258 -5.258819 0.5
v -0.9999999 -7 1
v -0.9999999 -7 -1
v -1 -6.5 -1
v -1 -6.5 1
v 0 -7 -1
v 0 -7 1
v -1 -4 1.5
v -1.034074 -3.741181 1.5
v -1 -3 1.5
v -1.133975 -3.5 1.5
v -1.292893 -3.292893 1.5
v -1.5 -3.133975 1.5
v -1.741181 -3.034074 1.5
v -2 -3 1.5
v -1.133975 -3.5 -1.5
v -1.292893 -3.292893 -1.5
v -1.5 -3.133975 -1.5
v -1.741181 -3.034074 -1.5
v -1.034074 -3.741181 -1.5
v -1 -4 -1.5
v -2 -3 -1.5
v -1 -3 -1.5
v -1 -5 1
v -1 -5 -1
v -2 -5 1
v -2 -5 -1
v -1 -4 -1
v -1 -4 1
v -1.741181 -4.965926 -1
v -1.741181 -4.965926 1
v -1.5 -4.866025 1
v -1.5 -4.866025 -1
v -1.292893 -4.707107 1
v -1.292893 -4.707107 -1
v -1.133975 -4.5 -1
v -1.133975 -4.5 1
v -1.034074 -4.258819 -1
v -1.034074 -4.258819 1
v -1.5 -6.866025 1
v -1.5 -6.866025 -1
v -1.707107 -6.707107 1
v -1.707107 -6.707107 -1
v -1.258819 -6.965926 -1
v -1.258819 -6.965926 1
v -1 -7 -1
v -1 -7 1
v -1.866025 -6.5 -1
v -1.866025 -6.5 1
v -1.965926 -6.258819 -1
v -1.965926 -6.258819 1
v -2 -6 -1
v -2 -6 1
v -1 -6 -1
v -1 -6 1
v -2 3 1.5
v -2 3 -1.5
v -3 3 1.5
v -3 3 -1.5
v -2 4 1.5
v -2 4 -1.5
v -2 -1 -1.5
v -2 -2 -1.5
v -2 -1 1.5
v -2 -2 1.5
v -3 -1 1.5
v -3 -1 -1.5
v -3 2 1.5
v -3 2 -1.5
v -4 2 1.5
v -4 2 -1.5
v -3 0 -1.5
v -3 0 1.5
v -4 0 1.5
v -4 0 -1.5
v -4 1 1.5
v -4 1 -1.5
v -5 1 1.5
v -5 1 -1.5
v 2 -1 2.5
v 2 -1 -2.5
v 1 -1 2.5
v 1 -1 -2.5
v 1 3 -2.5
v 1 3 2.5
v 2 3 -2.5
v 2 3 2.5
v 1 2 2.5
v 1 2 -2.5
v -2 2 2.5
v -2 2 -2.5
v -2 3 -2.5
v -2 3 2.5
v 1 0 3
v 1 0 -3
v -1 0 3
v -1 0 -3
v -1 2 -3
v -1 2 3
v 1 2 -3
v 1 2 3
v -1 -1 2.5
v -1 -1 -2.5
v -2 -1 2.5
v -2 -1 -2.5
v -1 2 -2.5
v -1 2 2.5
v -1 0 -2.5
v -1 0 2.5
v 1 0 -2.5
v 1 0 2.5
v 1 4 -1.5
v 1 5 -1.5
v 1 4 1.5
v 1 5 1.5
v 0 5 -1.5
v 0 6 -1.5
v 0 5 1.5
v 0 6 1.5
v -1 5 1.5
v -1 5 -1.5
v -1 4 1.5
v -1 4 -1.5

vn -1 0 0
vn 0 0 -1
vn 0.7071068 0.7071068 0
vn 0 0 1
vn 0 -1 0
vn 0.7071068 -0.7071068 0
vn 0 1 0
vn 0.9659259 -0.2588191 0
vn 0.9914449 -0.1305262 0
vn 0.8660254 -0.5 0
vn 0.5 -0.8660254 0
vn 0.2588191 -0.9659259 0
vn 0.1305262 -0.9914449 0
vn 0.2588191 0.9659259 0
vn 0.5 0.8660254 0
vn 0.8660254 0.5 0
vn 0.9659259 0.2588191 0
vn 0.1305262 0.9914449 0
vn 0.9914449 0.1305262 0
vn 0.258819 0.9659258 0
vn 0.7071068 0.7071068 0
vn 0.9659258 0.258819 0
vn 0.258819 -0.9659258 0
vn 0.7071068 -0.7071068 0
vn 0.9659258 -0.258819 0
vn 1 0 0
vn -0.258819 0.9659258 0
vn -0.1305262 0.9914449 0
vn -0.5 0.8660254 0
vn -0.7071068 0.7071068 0
vn -0.8660254 0.5 0
vn -0.9659258 0.258819 0
vn -0.9914449 0.1305262 0
vn -0.5 -0.8660254 0
vn -0.7071068 -0.7071068 0
vn -0.258819 -0.9659258 0
vn -0.1305262 -0.9914449 0
vn -0.8660254 -0.5 0
vn -0.9659258 -0.258819 0
vn -0.9914449 -0.1305262 0
vn -0.7071068 -0.7071068 0
vn -0.2588191 -0.9659259 0
vn -0.9659259 -0.2588191 0
vn -0.2588191 0.9659259 0
vn -0.7071068 0.7071068 0
vn -0.9659259 0.2588191 0

vt 0 0

usemtl color9

f 3/1/1 2/1/1 1/1/1
f 2/1/1 3/1/1 4/1/1
f 2/1/2 5/1/2 1/1/2
f 2/1/3 6/1/3 5/1/3
f 6/1/3 2/1/3 4/1/3
f 4/1/4 3/1/4 6/1/4
f 3/1/5 5/1/5 6/1/5
f 5/1/5 3/1/5 1/1/5
f 3/1/4 7/1/4 6/1/4
f 7/1/6 5/1/6 6/1/6
f 5/1/6 7/1/6 8/1/6
f 1/1/7 6/1/7 5/1/7
f 6/1/7 1/1/7 3/1/7
f 7/1/1 1/1/1 8/1/1
f 1/1/1 7/1/1 3/1/1
f 1/1/2 5/1/2 8/1/2
f 11/1/1 10/1/1 9/1/1
f 10/1/1 11/1/1 12/1/1
f 10/1/2 2/1/2 9/1/2
f 10/1/3 4/1/3 2/1/3
f 4/1/3 10/1/3 12/1/3
f 12/1/4 11/1/4 4/1/4
f 11/1/5 2/1/5 4/1/5
f 2/1/5 11/1/5 9/1/5
f 14/1/4 13/1/4 7/1/4
f 13/1/6 8/1/6 7/1/6
f 8/1/6 13/1/6 15/1/6
f 16/1/7 7/1/7 8/1/7
f 7/1/7 16/1/7 14/1/7
f 13/1/1 16/1/1 15/1/1
f 16/1/1 13/1/1 14/1/1
f 16/1/2 8/1/2 15/1/2
f 19/1/1 18/1/1 17/1/1
f 18/1/1 19/1/1 20/1/1
f 18/1/2 10/1/2 17/1/2
f 18/1/3 12/1/3 10/1/3
f 12/1/3 18/1/3 20/1/3
f 20/1/4 19/1/4 12/1/4
f 19/1/5 10/1/5 12/1/5
f 10/1/5 19/1/5 17/1/5
f 22/1/4 21/1/4 13/1/4
f 21/1/6 15/1/6 13/1/6
f 15/1/6 21/1/6 23/1/6
f 24/1/7 13/1/7 15/1/7
f 13/1/7 24/1/7 22/1/7
f 21/1/1 24/1/1 23/1/1
f 24/1/1 21/1/1 22/1/1
f 24/1/2 15/1/2 23/1/2
f 27/1/2 26/1/2 25/1/2
f 26/1/2 27/1/2 28/1/2
f 28/1/2 27/1/2 29/1/2
f 29/1/2 27/1/2 30/1/2
f 30/1/2 27/1/2 31/1/2
f 31/1/2 27/1/2 32/1/2
f 35/1/4 34/1/4 33/1/4
f 34/1/4 35/1/4 36/1/4
f 34/1/4 36/1/4 37/1/4
f 34/1/4 37/1/4 38/1/4
f 34/1/4 38/1/4 39/1/4
f 34/1/4 39/1/4 40/1/4
f 35/1/8 25/1/9 26/1/8
f 25/1/9 35/1/8 33/1/9
f 26/1/8 36/1/10 35/1/8
f 36/1/10 26/1/8 28/1/10
f 28/1/10 37/1/6 36/1/10
f 37/1/6 28/1/10 29/1/6
f 30/1/11 37/1/6 29/1/6
f 37/1/6 30/1/11 38/1/11
f 31/1/12 38/1/11 30/1/11
f 38/1/11 31/1/12 39/1/12
f 32/1/13 39/1/12 31/1/12
f 39/1/12 32/1/13 40/1/13
f 33/1/1 27/1/1 25/1/1
f 27/1/1 33/1/1 34/1/1
f 27/1/7 40/1/7 32/1/7
f 40/1/7 27/1/7 34/1/7
f 43/1/15 42/1/14 41/1/14
f 42/1/14 43/1/15 44/1/15
f 45/1/3 44/1/15 43/1/15
f 44/1/15 45/1/3 46/1/3
f 45/1/3 47/1/16 46/1/3
f 47/1/16 45/1/3 48/1/16
f 48/1/16 49/1/17 47/1/16
f 49/1/17 48/1/16 50/1/17
f 51/1/18 41/1/14 42/1/14
f 41/1/14 51/1/18 52/1/18
f 50/1/17 53/1/19 49/1/17
f 53/1/19 50/1/17 54/1/19
f 55/1/5 52/1/5 51/1/5
f 52/1/5 55/1/5 56/1/5
f 56/1/2 41/1/2 52/1/2
f 41/1/2 56/1/2 43/1/2
f 43/1/2 56/1/2 45/1/2
f 45/1/2 56/1/2 48/1/2
f 48/1/2 56/1/2 50/1/2
f 50/1/2 56/1/2 54/1/2
f 55/1/1 54/1/1 56/1/1
f 54/1/1 55/1/1 53/1/1
f 55/1/4 49/1/4 53/1/4
f 49/1/4 55/1/4 47/1/4
f 47/1/4 55/1/4 46/1/4
f 46/1/4 55/1/4 44/1/4
f 44/1/4 55/1/4 42/1/4
f 42/1/4 55/1/4 51/1/4
f 59/1/13 58/1/12 57/1/12
f 58/1/12 59/1/13 60/1/13
f 61/1/11 57/1/12 58/1/12
f 57/1/12 61/1/11 62/1/11
f 63/1/6 62/1/11 61/1/11
f 62/1/11 63/1/6 64/1/6
f 63/1/6 65/1/10 64/1/6
f 65/1/10 63/1/6 66/1/10
f 66/1/10 67/1/8 65/1/10
f 67/1/8 66/1/10 68/1/8
f 68/1/8 69/1/9 67/1/8
f 69/1/9 68/1/8 70/1/9
f 59/1/1 71/1/1 60/1/1
f 71/1/1 59/1/1 72/1/1
f 71/1/7 69/1/7 70/1/7
f 69/1/7 71/1/7 72/1/7
f 71/1/2 58/1/2 60/1/2
f 58/1/2 71/1/2 61/1/2
f 61/1/2 71/1/2 63/1/2
f 63/1/2 71/1/2 66/1/2
f 66/1/2 71/1/2 68/1/2
f 68/1/2 71/1/2 70/1/2
f 57/1/4 72/1/4 59/1/4
f 72/1/4 57/1/4 62/1/4
f 72/1/4 62/1/4 64/1/4
f 72/1/4 64/1/4 65/1/4
f 72/1/4 65/1/4 67/1/4
f 72/1/4 67/1/4 69/1/4
f 75/1/15 74/1/20 73/1/20
f 74/1/20 75/1/15 76/1/15
f 77/1/21 76/1/15 75/1/15
f 76/1/15 77/1/21 78/1/21
f 77/1/21 79/1/16 78/1/21
f 79/1/16 77/1/21 80/1/16
f 80/1/16 81/1/22 79/1/16
f 81/1/22 80/1/16 82/1/22
f 83/1/18 73/1/20 74/1/20
f 73/1/20 83/1/18 84/1/18
f 82/1/22 85/1/19 81/1/22
f 85/1/19 82/1/22 86/1/19
f 87/1/5 84/1/5 83/1/5
f 84/1/5 87/1/5 88/1/5
f 88/1/2 73/1/2 84/1/2
f 73/1/2 88/1/2 75/1/2
f 75/1/2 88/1/2 77/1/2
f 77/1/2 88/1/2 80/1/2
f 80/1/2 88/1/2 82/1/2
f 82/1/2 88/1/2 86/1/2
f 87/1/1 86/1/1 88/1/1
f 86/1/1 87/1/1 85/1/1
f 87/1/4 81/1/4 85/1/4
f 81/1/4 87/1/4 79/1/4
f 79/1/4 87/1/4 78/1/4
f 78/1/4 87/1/4 76/1/4
f 76/1/4 87/1/4 74/1/4
f 74/1/4 87/1/4 83/1/4
f 91/1/13 90/1/23 89/1/23
f 90/1/23 91/1/13 92/1/13
f 93/1/11 89/1/23 90/1/23
f 89/1/23 93/1/11 94/1/11
f 95/1/24 94/1/11 93/1/11
f 94/1/11 95/1/24 96/1/24
f 95/1/24 97/1/10 96/1/24
f 97/1/10 95/1/24 98/1/10
f 98/1/10 99/1/25 97/1/10
f 99/1/25 98/1/10 100/1/25
f 100/1/25 83/1/9 99/1/25
f 83/1/9 100/1/25 84/1/9
f 91/1/1 88/1/1 92/1/1
f 88/1/1 91/1/1 87/1/1
f 88/1/7 83/1/7 84/1/7
f 83/1/7 88/1/7 87/1/7
f 88/1/2 90/1/2 92/1/2
f 90/1/2 88/1/2 93/1/2
f 93/1/2 88/1/2 95/1/2
f 95/1/2 88/1/2 98/1/2
f 98/1/2 88/1/2 100/1/2
f 100/1/2 88/1/2 84/1/2
f 89/1/4 87/1/4 91/1/4
f 87/1/4 89/1/4 94/1/4
f 87/1/4 94/1/4 96/1/4
f 87/1/4 96/1/4 97/1/4
f 87/1/4 97/1/4 99/1/4
f 87/1/4 99/1/4 83/1/4
f 101/1/5 60/1/5 59/1/5
f 60/1/5 101/1/5 102/1/5
f 105/1/7 104/1/7 103/1/7
f 104/1/7 105/1/7 106/1/7
f 105/1/2 60/1/2 102/1/2
f 60/1/2 105/1/2 103/1/2
f 101/1/1 105/1/1 102/1/1
f 105/1/1 101/1/1 106/1/1
f 59/1/4 106/1/4 101/1/4
f 106/1/4 59/1/4 104/1/4
f 104/1/26 60/1/26 103/1/26
f 60/1/26 104/1/26 59/1/26
f 107/1/5 88/1/5 87/1/5
f 88/1/5 107/1/5 108/1/5
f 85/1/26 88/1/26 86/1/26
f 88/1/26 85/1/26 87/1/26
f 108/1/28 110/1/27 109/1/27
f 110/1/27 108/1/28 107/1/28
f 111/1/29 109/1/27 110/1/27
f 109/1/27 111/1/29 112/1/29
f 113/1/30 112/1/29 111/1/29
f 112/1/29 113/1/30 114/1/30
f 113/1/30 115/1/31 114/1/30
f 115/1/31 113/1/30 116/1/31
f 116/1/31 117/1/32 115/1/31
f 117/1/32 116/1/31 118/1/32
f 118/1/32 86/1/33 117/1/32
f 86/1/33 118/1/32 85/1/33
f 109/1/2 88/1/2 108/1/2
f 88/1/2 109/1/2 112/1/2
f 88/1/2 112/1/2 114/1/2
f 88/1/2 114/1/2 115/1/2
f 88/1/2 115/1/2 117/1/2
f 88/1/2 117/1/2 86/1/2
f 87/1/4 110/1/4 107/1/4
f 110/1/4 87/1/4 111/1/4
f 111/1/4 87/1/4 113/1/4
f 113/1/4 87/1/4 116/1/4
f 116/1/4 87/1/4 118/1/4
f 118/1/4 87/1/4 85/1/4
f 121/1/35 120/1/34 119/1/34
f 120/1/34 121/1/35 122/1/35
f 123/1/36 119/1/34 120/1/34
f 119/1/34 123/1/36 124/1/36
f 92/1/37 124/1/36 123/1/36
f 124/1/36 92/1/37 91/1/37
f 121/1/35 125/1/38 122/1/35
f 125/1/38 121/1/35 126/1/38
f 126/1/38 127/1/39 125/1/38
f 127/1/39 126/1/38 128/1/39
f 128/1/39 108/1/40 127/1/39
f 108/1/40 128/1/39 107/1/40
f 108/1/7 87/1/7 88/1/7
f 87/1/7 108/1/7 107/1/7
f 87/1/26 92/1/26 88/1/26
f 92/1/26 87/1/26 91/1/26
f 123/1/2 88/1/2 92/1/2
f 88/1/2 123/1/2 120/1/2
f 88/1/2 120/1/2 122/1/2
f 88/1/2 122/1/2 125/1/2
f 88/1/2 125/1/2 127/1/2
f 88/1/2 127/1/2 108/1/2
f 87/1/4 124/1/4 91/1/4
f 124/1/4 87/1/4 119/1/4
f 119/1/4 87/1/4 121/1/4
f 121/1/4 87/1/4 126/1/4
f 126/1/4 87/1/4 128/1/4
f 128/1/4 87/1/4 107/1/4
f 129/1/5 102/1/5 101/1/5
f 102/1/5 129/1/5 130/1/5
f 131/1/7 106/1/7 105/1/7
f 106/1/7 131/1/7 132/1/7
f 131/1/2 102/1/2 130/1/2
f 102/1/2 131/1/2 105/1/2
f 129/1/1 131/1/1 130/1/1
f 131/1/1 129/1/1 132/1/1
f 101/1/4 132/1/4 129/1/4
f 132/1/4 101/1/4 106/1/4
f 106/1/26 133/1/26 105/1/26
f 133/1/26 106/1/26 134/1/26
f 137/1/4 136/1/4 135/1/4
f 136/1/4 137/1/4 138/1/4
f 138/1/4 137/1/4 139/1/4
f 139/1/4 137/1/4 140/1/4
f 140/1/4 137/1/4 141/1/4
f 141/1/4 137/1/4 142/1/4
f 138/1/38 144/1/41 143/1/38
f 144/1/41 138/1/38 139/1/41
f 140/1/34 144/1/41 139/1/41
f 144/1/41 140/1/34 145/1/34
f 141/1/42 145/1/34 140/1/34
f 145/1/34 141/1/42 146/1/42
f 143/1/38 136/1/43 138/1/38
f 136/1/43 143/1/38 147/1/43
f 147/1/43 135/1/40 136/1/43
f 135/1/40 147/1/43 148/1/40
f 142/1/37 146/1/42 141/1/42
f 146/1/42 142/1/37 149/1/37
f 147/1/2 150/1/2 148/1/2
f 150/1/2 147/1/2 143/1/2
f 150/1/2 143/1/2 144/1/2
f 150/1/2 144/1/2 145/1/2
f 150/1/2 145/1/2 146/1/2
f 150/1/2 146/1/2 149/1/2
f 137/1/26 148/1/26 150/1/26
f 148/1/26 137/1/26 135/1/26
f 149/1/7 137/1/7 150/1/7
f 137/1/7 149/1/7 142/1/7
f 153/1/5 152/1/5 151/1/5
f 152/1/5 153/1/5 154/1/5
f 156/1/26 152/1/26 155/1/26
f 152/1/26 156/1/26 151/1/26
f 154/1/28 158/1/44 157/1/44
f 158/1/44 154/1/28 153/1/28
f 159/1/29 157/1/44 158/1/44
f 157/1/44 159/1/29 160/1/29
f 161/1/45 160/1/29 159/1/29
f 160/1/29 161/1/45 162/1/45
f 161/1/45 163/1/31 162/1/45
f 163/1/31 161/1/45 164/1/31
f 164/1/31 165/1/46 163/1/31
f 165/1/46 164/1/31 166/1/46
f 166/1/46 155/1/33 165/1/46
f 155/1/33 166/1/46 156/1/33
f 157/1/2 152/1/2 154/1/2
f 152/1/2 157/1/2 160/1/2
f 152/1/2 160/1/2 162/1/2
f 152/1/2 162/1/2 163/1/2
f 152/1/2 163/1/2 165/1/2
f 152/1/2 165/1/2 155/1/2
f 151/1/4 158/1/4 153/1/4
f 158/1/4 151/1/4 159/1/4
f 159/1/4 151/1/4 161/1/4
f 161/1/4 151/1/4 164/1/4
f 164/1/4 151/1/4 166/1/4
f 166/1/4 151/1/4 156/1/4
f 169/1/41 168/1/34 167/1/34
f 168/1/34 169/1/41 170/1/41
f 171/1/42 167/1/34 168/1/34
f 167/1/34 171/1/42 172/1/42
f 173/1/37 172/1/42 171/1/42
f 172/1/42 173/1/37 174/1/37
f 169/1/41 175/1/38 170/1/41
f 175/1/38 169/1/41 176/1/38
f 176/1/38 177/1/43 175/1/38
f 177/1/43 176/1/38 178/1/43
f 178/1/43 179/1/40 177/1/43
f 179/1/40 178/1/43 180/1/40
f 179/1/7 182/1/7 181/1/7
f 182/1/7 179/1/7 180/1/7
f 182/1/26 173/1/26 181/1/26
f 173/1/26 182/1/26 174/1/26
f 171/1/2 181/1/2 130/1/2
f 181/1/2 171/1/2 168/1/2
f 181/1/2 168/1/2 170/1/2
f 181/1/2 170/1/2 175/1/2
f 181/1/2 175/1/2 177/1/2
f 181/1/2 177/1/2 179/1/2
f 182/1/4 172/1/4 129/1/4
f 172/1/4 182/1/4 167/1/4
f 167/1/4 182/1/4 169/1/4
f 169/1/4 182/1/4 176/1/4
f 176/1/4 182/1/4 178/1/4
f 178/1/4 182/1/4 180/1/4
f 185/1/5 184/1/5 183/1/5
f 184/1/5 185/1/5 186/1/5
f 187/1/4 185/1/4 183/1/4
f 188/1/2 184/1/2 186/1/2
f 187/1/26 184/1/26 188/1/26
f 184/1/26 187/1/26 183/1/26
f 185/1/45 188/1/45 186/1/45
f 188/1/45 185/1/45 187/1/45
f 191/1/26 190/1/26 189/1/26
f 190/1/26 191/1/26 192/1/26
f 193/1/4 192/1/4 191/1/4
f 192/1/41 194/1/41 190/1/41
f 194/1/41 192/1/41 193/1/41
f 194/1/2 189/1/2 190/1/2
f 194/1/7 191/1/7 189/1/7
f 191/1/7 194/1/7 193/1/7
f 197/1/5 196/1/5 195/1/5
f 196/1/5 197/1/5 198/1/5
f 185/1/4 197/1/4 195/1/4
f 186/1/2 196/1/2 198/1/2
f 185/1/26 196/1/26 186/1/26
f 196/1/26 185/1/26 195/1/26
f 197/1/45 186/1/45 198/1/45
f 186/1/45 197/1/45 185/1/45
f 200/1/26 194/1/26 199/1/26
f 194/1/26 200/1/26 193/1/26
f 201/1/4 193/1/4 200/1/4
f 193/1/41 202/1/41 194/1/41
f 202/1/41 193/1/41 201/1/41
f 202/1/2 199/1/2 194/1/2
f 202/1/7 200/1/7 199/1/7
f 200/1/7 202/1/7 201/1/7
f 205/1/5 204/1/5 203/1/5
f 204/1/5 205/1/5 206/1/5
f 197/1/4 205/1/4 203/1/4
f 198/1/2 204/1/2 206/1/2
f 197/1/26 204/1/26 198/1/26
f 204/1/26 197/1/26 203/1/26
f 205/1/45 198/1/45 206/1/45
f 198/1/45 205/1/45 197/1/45
f 203/1/26 202/1/26 204/1/26
f 202/1/26 203/1/26 201/1/26
f 205/1/4 201/1/4 203/1/4
f 201/1/41 206/1/41 202/1/41
f 206/1/41 201/1/41 205/1/41
f 206/1/2 204/1/2 202/1/2
f 206/1/7 203/1/7 204/1/7
f 203/1/7 206/1/7 205/1/7
f 183/1/5 17/1/5 19/1/5
f 17/1/5 183/1/5 184/1/5
f 183/1/1 188/1/1 184/1/1
f 188/1/1 183/1/1 187/1/1
f 188/1/2 17/1/2 184/1/2
f 17/1/2 188/1/2 18/1/2
f 20/1/4 183/1/4 19/1/4
f 183/1/4 20/1/4 187/1/4
f 20/1/26 17/1/26 18/1/26
f 17/1/26 20/1/26 19/1/26
f 188/1/7 20/1/7 18/1/7
f 20/1/7 188/1/7 187/1/7
f 22/1/5 15/1/5 13/1/5
f 15/1/5 22/1/5 24/1/5
f 22/1/1 17/1/1 24/1/1
f 17/1/1 22/1/1 19/1/1
f 17/1/2 15/1/2 24/1/2
f 15/1/2 17/1/2 10/1/2
f 12/1/4 22/1/4 13/1/4
f 22/1/4 12/1/4 19/1/4
f 12/1/26 15/1/26 10/1/26
f 15/1/26 12/1/26 13/1/26
f 17/1/7 12/1/7 10/1/7
f 12/1/7 17/1/7 19/1/7
f 209/1/5 208/1/5 207/1/5
f 208/1/5 209/1/5 210/1/5
f 209/1/1 211/1/1 210/1/1
f 211/1/1 209/1/1 212/1/1
f 211/1/2 208/1/2 210/1/2
f 208/1/2 211/1/2 213/1/2
f 214/1/4 209/1/4 207/1/4
f 209/1/4 214/1/4 212/1/4
f 214/1/26 208/1/26 213/1/26
f 208/1/26 214/1/26 207/1/26
f 211/1/7 214/1/7 213/1/7
f 214/1/7 211/1/7 212/1/7
f 217/1/5 216/1/5 215/1/5
f 216/1/5 217/1/5 218/1/5
f 217/1/1 219/1/1 218/1/1
f 219/1/1 217/1/1 220/1/1
f 219/1/2 216/1/2 218/1/2
f 216/1/2 219/1/2 211/1/2
f 212/1/4 217/1/4 215/1/4
f 217/1/4 212/1/4 220/1/4
f 212/1/26 216/1/26 211/1/26
f 216/1/26 212/1/26 215/1/26
f 219/1/7 212/1/7 211/1/7
f 212/1/7 219/1/7 220/1/7
f 193/1/5 189/1/5 191/1/5
f 189/1/5 193/1/5 194/1/5
f 193/1/1 186/1/1 194/1/1
f 186/1/1 193/1/1 185/1/1
f 186/1/2 189/1/2 194/1/2
f 189/1/2 186/1/2 184/1/2
f 183/1/4 193/1/4 191/1/4
f 193/1/4 183/1/4 185/1/4
f 183/1/26 189/1/26 184/1/26
f 189/1/26 183/1/26 191/1/26
f 186/1/7 183/1/7 184/1/7
f 183/1/7 186/1/7 185/1/7
f 14/1/5 8/1/5 7/1/5
f 8/1/5 14/1/5 16/1/5
f 14/1/1 9/1/1 16/1/1
f 9/1/1 14/1/1 11/1/1
f 9/1/2 8/1/2 16/1/2
f 8/1/2 9/1/2 2/1/2
f 4/1/4 14/1/4 7/1/4
f 14/1/4 4/1/4 11/1/4
f 4/1/26 8/1/26 2/1/26
f 8/1/26 4/1/26 7/1/26
f 9/1/7 4/1/7 2/1/7
f 4/1/7 9/1/7 11/1/7
f 223/1/5 222/1/5 221/1/5
f 222/1/5 223/1/5 224/1/5
f 223/1/1 225/1/1 224/1/1
f 225/1/1 223/1/1 226/1/1
f 225/1/2 222/1/2 224/1/2
f 222/1/2 225/1/2 227/1/2
f 228/1/4 223/1/4 221/1/4
f 223/1/4 228/1/4 226/1/4
f 228/1/26 222/1/26 227/1/26
f 222/1/26 228/1/26 221/1/26
f 225/1/7 228/1/7 227/1/7
f 228/1/7 225/1/7 226/1/7
f 231/1/5 230/1/5 229/1/5
f 230/1/5 231/1/5 232/1/5
f 231/1/1 218/1/1 232/1/1
f 218/1/1 231/1/1 217/1/1
f 218/1/2 230/1/2 232/1/2
f 230/1/2 218/1/2 233/1/2
f 234/1/4 231/1/4 229/1/4
f 231/1/4 234/1/4 217/1/4
f 234/1/26 230/1/26 233/1/26
f 230/1/26 234/1/26 229/1/26
f 218/1/7 234/1/7 233/1/7
f 234/1/7 218/1/7 217/1/7
f 201/1/5 199/1/5 200/1/5
f 199/1/5 201/1/5 202/1/5
f 201/1/1 198/1/1 202/1/1
f 198/1/1 201/1/1 197/1/1
f 198/1/2 199/1/2 202/1/2
f 199/1/2 198/1/2 196/1/2
f 195/1/4 201/1/4 200/1/4
f 201/1/4 195/1/4 197/1/4
f 195/1/26 199/1/26 196/1/26
f 199/1/26 195/1/26 200/1/26
f 198/1/7 195/1/7 196/1/7
f 195/1/7 198/1/7 197/1/7
f 229/1/5 210/1/5 209/1/5
f 210/1/5 229/1/5 230/1/5
f 229/1/1 235/1/1 230/1/1
f 235/1/1 229/1/1 236/1/1
f 235/1/2 210/1/2 230/1/2
f 210/1/2 235/1/2 237/1/2
f 238/1/4 229/1/4 209/1/4
f 229/1/4 238/1/4 236/1/4
f 238/1/26 210/1/26 237/1/26
f 210/1/26 238/1/26 209/1/26
f 235/1/7 238/1/7 237/1/7
f 238/1/7 235/1/7 236/1/7
f 142/1/5 32/1/5 40/1/5
f 32/1/5 142/1/5 149/1/5
f 142/1/1 189/1/1 149/1/1
f 189/1/1 142/1/1 191/1/1
f 189/1/2 32/1/2 149/1/2
f 32/1/2 189/1/2 24/1/2
f 22/1/4 142/1/4 40/1/4
f 142/1/4 22/1/4 191/1/4
f 22/1/26 32/1/26 24/1/26
f 32/1/26 22/1/26 40/1/26
f 189/1/7 22/1/7 24/1/7
f 22/1/7 189/1/7 191/1/7
f 135/1/5 25/1/5 33/1/5
f 25/1/5 135/1/5 148/1/5
f 135/1/1 150/1/1 148/1/1
f 150/1/1 135/1/1 137/1/1
f 150/1/2 25/1/2 148/1/2
f 25/1/2 150/1/2 27/1/2
f 34/1/4 135/1/4 33/1/4
f 135/1/4 34/1/4 137/1/4
f 34/1/26 25/1/26 27/1/26
f 25/1/26 34/1/26 33/1/26
f 150/1/7 34/1/7 27/1/7
f 34/1/7 150/1/7 137/1/7
f 72/1/5 70/1/5 69/1/5
f 70/1/5 72/1/5 71/1/5
f 72/1/1 56/1/1 71/1/1
f 56/1/1 72/1/1 55/1/1
f 56/1/2 70/1/2 71/1/2
f 70/1/2 56/1/2 52/1/2
f 51/1/4 72/1/4 69/1/4
f 72/1/4 51/1/4 55/1/4
f 51/1/26 70/1/26 52/1/26
f 70/1/26 51/1/26 69/1/26
f 56/1/7 51/1/7 52/1/7
f 51/1/7 56/1/7 55/1/7
f 180/1/5 181/1/5 182/1/5
f 181/1/5 180/1/5 179/1/5
f 180/1/1 154/1/1 179/1/1
f 154/1/1 180/1/1 153/1/1
f 154/1/2 181/1/2 179/1/2
f 181/1/2 154/1/2 152/1/2
f 151/1/4 180/1/4 182/1/4
f 180/1/4 151/1/4 153/1/4
f 151/1/26 181/1/26 152/1/26
f 181/1/26 151/1/26 182/1/26
f 154/1/7 151/1/7 152/1/7
f 151/1/7 154/1/7 153/1/7
f 217/1/5 216/1/5 215/1/5
f 216/1/5 217/1/5 218/1/5
f 217/1/1 219/1/1 218/1/1
f 219/1/1 217/1/1 220/1/1
f 219/1/2 216/1/2 218/1/2
f 216/1/2 219/1/2 211/1/2
f 212/1/4 217/1/4 215/1/4
f 217/1/4 212/1/4 220/1/4
f 212/1/26 216/1/26 211/1/26
f 216/1/26 212/1/26 215/1/26
f 219/1/7 212/1/7 211/1/7
f 212/1/7 219/1/7 220/1/7

usemtl color8

f 241/1/1 240/1/1 239/1/1
f 240/1/1 241/1/1 242/1/1
f 240/1/2 18/1/2 239/1/2
f 240/1/3 20/1/3 18/1/3
f 20/1/3 240/1/3 242/1/3
f 242/1/4 241/1/4 20/1/4
f 241/1/5 18/1/5 20/1/5
f 18/1/5 241/1/5 239/1/5
f 245/1/1 244/1/1 243/1/1
f 244/1/1 245/1/1 246/1/1
f 244/1/2 240/1/2 243/1/2
f 244/1/3 242/1/3 240/1/3
f 242/1/3 244/1/3 246/1/3
f 246/1/4 245/1/4 242/1/4
f 245/1/5 240/1/5 242/1/5
f 240/1/5 245/1/5 243/1/5
f 247/1/5 243/1/5 245/1/5
f 243/1/5 247/1/5 248/1/5
f 246/1/4 247/1/4 245/1/4
f 244/1/2 243/1/2 248/1/2
f 246/1/26 243/1/26 244/1/26
f 243/1/26 246/1/26 245/1/26
f 247/1/45 244/1/45 248/1/45
f 244/1/45 247/1/45 246/1/45
f 187/1/5 250/1/5 249/1/5
f 250/1/5 187/1/5 188/1/5
f 247/1/4 187/1/4 249/1/4
f 248/1/2 250/1/2 188/1/2
f 247/1/26 250/1/26 248/1/26
f 250/1/26 247/1/26 249/1/26
f 187/1/45 248/1/45 188/1/45
f 248/1/45 187/1/45 247/1/45
f 249/1/5 239/1/5 241/1/5
f 239/1/5 249/1/5 250/1/5
f 249/1/1 248/1/1 250/1/1
f 248/1/1 249/1/1 247/1/1
f 248/1/2 239/1/2 250/1/2
f 239/1/2 248/1/2 240/1/2
f 242/1/4 249/1/4 241/1/4
f 249/1/4 242/1/4 247/1/4
f 242/1/26 239/1/26 240/1/26
f 239/1/26 242/1/26 241/1/26
f 248/1/7 242/1/7 240/1/7
f 242/1/7 248/1/7 247/1/7

