# Created by Kenney (www.kenney.nl)

mtllib pium.mtl

v 1 4 -1.5
v 1 5 -1.5
v 1 4 1.5
v 1 5 1.5
v 2 4 -1.5
v 2 4 1.5
v 1 -4 -1.5
v 1.034074 -3.741181 -1.5
v 1 -3 -1.5
v 1.133975 -3.5 -1.5
v 1.292893 -3.292893 -1.5
v 1.5 -3.133975 -1.5
v 1.741181 -3.034074 -1.5
v 2 -3 -1.5
v 1 -4 1.5
v 1 -3 1.5
v 1.034074 -3.741181 1.5
v 1.133975 -3.5 1.5
v 1.292893 -3.292893 1.5
v 1.5 -3.133975 1.5
v 1.741181 -3.034074 1.5
v 2 -3 1.5
v 1.741181 -4.965926 -1
v 1.741181 -4.965926 1
v 1.5 -4.866025 -1
v 1.5 -4.866025 1
v 1.292893 -4.707107 -1
v 1.292893 -4.707107 1
v 1.133975 -4.5 1
v 1.133975 -4.5 -1
v 1.034074 -4.258819 1
v 1.034074 -4.258819 -1
v 2 -5 1
v 2 -5 -1
v 1 -4 1
v 1 -4 -1
v 1 -5 1
v 1 -5 -1
v 1.258819 -6.965926 1
v 1.258819 -6.965926 -1
v 1 -7 1
v 1 -7 -1
v 1.5 -6.866025 -1
v 1.5 -6.866025 1
v 1.707107 -6.707107 -1
v 1.707107 -6.707107 1
v 1.866025 -6.5 1
v 1.866025 -6.5 -1
v 1.965926 -6.258819 1
v 1.965926 -6.258819 -1
v 2 -6 1
v 2 -6 -1
v 1 -6 -1
v 1 -6 1
v 0 5 -1.5
v 0 6 -1.5
v 0 5 1.5
v 0 6 1.5
v 0.741181 -4.965926 -0.5
v 0.741181 -4.965926 0.5
v 0.5 -4.866025 -0.5
v 0.5 -4.866025 0.5
v 0.2928932 -4.707107 -0.5
v 0.2928932 -4.707107 0.5
v 0.1339746 -4.5 0.5
v 0.1339746 -4.5 -0.5
v 0.03407419 -4.258819 0.5
v 0.03407419 -4.258819 -0.5
v 1 -5 0.5
v 1 -5 -0.5
v 0 -4 0.5
v 0 -4 -0.5
v 0 -5 0.5
v 0 -5 -0.5
v 0.258819 -5.965926 0.5
v 0.258819 -5.965926 -0.5
v 0 -6 0.5
v 0 -6 -0.5
v 0.5 -5.866025 -0.5
v 0.5 -5.866025 0.5
v 0.7071068 -5.707107 -0.5
v 0.7071068 -5.707107 0.5
v 0.8660254 -5.5 0.5
v 0.8660254 -5.5 -0.5
v 0.9659258 -5.258819 0.5
v 0.9659258 -5.258819 -0.5
v 5.960464E-08 -7 1
v 5.960464E-08 -7 -1
v 1 -6.5 -1
v 1 -6.5 1
v 0 -6.5 -1
v 0 -6.5 1
v -1 5 1.5
v -1 5 -1.5
v -1 -5 0.5
v -1 -5 -0.5
v -0.741181 -4.965926 -0.5
v -0.741181 -4.965926 0.5
v -0.5 -4.866025 0.5
v -0.5 -4.866025 -0.5
v -0.2928932 -4.707107 0.5
v -0.2928932 -4.707107 -0.5
v -0.1339746 -4.5 -0.5
v -0.1339746 -4.5 0.5
v -0.03407419 -4.258819 -0.5
v -0.03407419 -4.258819 0.5
v -0.5 -5.866025 0.5
v -0.5 -5.866025 -0.5
v -0.7071068 -5.707107 0.5
v -0.7071068 -5.707107 -0.5
v -0.258819 -5.965926 -0.5
v -0.258819 -5.965926 0.5
v -0.8660254 -5.5 -0.5
v -0.8660254 -5.5 0.5
v -0.9659258 -5.258819 -0.5
v -0.9659258 -5.258819 0.5
v -0.9999999 -7 1
v -0.9999999 -7 -1
v -1 -6.5 -1
v -1 -6.5 1
v 0 -7 -1
v 0 -7 1
v -1 4 1.5
v -1 4 -1.5
v -2 4 1.5
v -2 4 -1.5
v -1 -4 1.5
v -1.034074 -3.741181 1.5
v -1 -3 1.5
v -1.133975 -3.5 1.5
v -1.292893 -3.292893 1.5
v -1.5 -3.133975 1.5
v -1.741181 -3.034074 1.5
v -2 -3 1.5
v -1.133975 -3.5 -1.5
v -1.292893 -3.292893 -1.5
v -1.5 -3.133975 -1.5
v -1.741181 -3.034074 -1.5
v -1.034074 -3.741181 -1.5
v -1 -4 -1.5
v -2 -3 -1.5
v -1 -3 -1.5
v -1 -5 1
v -1 -5 -1
v -2 -5 1
v -2 -5 -1
v -1 -4 -1
v -1 -4 1
v -1.741181 -4.965926 -1
v -1.741181 -4.965926 1
v -1.5 -4.866025 1
v -1.5 -4.866025 -1
v -1.292893 -4.707107 1
v -1.292893 -4.707107 -1
v -1.133975 -4.5 -1
v -1.133975 -4.5 1
v -1.034074 -4.258819 -1
v -1.034074 -4.258819 1
v -1.5 -6.866025 1
v -1.5 -6.866025 -1
v -1.707107 -6.707107 1
v -1.707107 -6.707107 -1
v -1.258819 -6.965926 -1
v -1.258819 -6.965926 1
v -1 -7 -1
v -1 -7 1
v -1.866025 -6.5 -1
v -1.866025 -6.5 1
v -1.965926 -6.258819 -1
v -1.965926 -6.258819 1
v -2 -6 -1
v -2 -6 1
v -1 -6 -1
v -1 -6 1

vn -1 0 0
vn 0 0 -1
vn 0.7071068 0.7071068 0
vn 0 0 1
vn 0 -1 0
vn 0.9659259 -0.2588191 0
vn 0.9914449 -0.1305262 0
vn 0.8660254 -0.5 0
vn 0.7071068 -0.7071068 0
vn 0.5 -0.8660254 0
vn 0.2588191 -0.9659259 0
vn 0.1305262 -0.9914449 0
vn 0 1 0
vn 0.2588191 0.9659259 0
vn 0.5 0.8660254 0
vn 0.8660254 0.5 0
vn 0.9659259 0.2588191 0
vn 0.1305262 0.9914449 0
vn 0.9914449 0.1305262 0
vn 0.258819 0.9659258 0
vn 0.7071068 0.7071068 0
vn 0.9659258 0.258819 0
vn 0.258819 -0.9659258 0
vn 0.7071068 -0.7071068 0
vn 0.9659258 -0.258819 0
vn 1 0 0
vn -0.7071068 0.7071068 0
vn -0.258819 0.9659258 0
vn -0.1305262 0.9914449 0
vn -0.5 0.8660254 0
vn -0.7071068 0.7071068 0
vn -0.8660254 0.5 0
vn -0.9659258 0.258819 0
vn -0.9914449 0.1305262 0
vn -0.5 -0.8660254 0
vn -0.7071068 -0.7071068 0
vn -0.258819 -0.9659258 0
vn -0.1305262 -0.9914449 0
vn -0.8660254 -0.5 0
vn -0.9659258 -0.258819 0
vn -0.9914449 -0.1305262 0
vn -0.7071068 -0.7071068 0
vn -0.2588191 -0.9659259 0
vn -0.9659259 -0.2588191 0
vn -0.2588191 0.9659259 0
vn -0.9659259 0.2588191 0

vt 0 0

usemtl color9

f 3/1/1 2/1/1 1/1/1
f 2/1/1 3/1/1 4/1/1
f 2/1/2 5/1/2 1/1/2
f 2/1/3 6/1/3 5/1/3
f 6/1/3 2/1/3 4/1/3
f 4/1/4 3/1/4 6/1/4
f 3/1/5 5/1/5 6/1/5
f 5/1/5 3/1/5 1/1/5
f 9/1/2 8/1/2 7/1/2
f 8/1/2 9/1/2 10/1/2
f 10/1/2 9/1/2 11/1/2
f 11/1/2 9/1/2 12/1/2
f 12/1/2 9/1/2 13/1/2
f 13/1/2 9/1/2 14/1/2
f 17/1/4 16/1/4 15/1/4
f 16/1/4 17/1/4 18/1/4
f 16/1/4 18/1/4 19/1/4
f 16/1/4 19/1/4 20/1/4
f 16/1/4 20/1/4 21/1/4
f 16/1/4 21/1/4 22/1/4
f 17/1/6 7/1/7 8/1/6
f 7/1/7 17/1/6 15/1/7
f 8/1/6 18/1/8 17/1/6
f 18/1/8 8/1/6 10/1/8
f 10/1/8 19/1/9 18/1/8
f 19/1/9 10/1/8 11/1/9
f 12/1/10 19/1/9 11/1/9
f 19/1/9 12/1/10 20/1/10
f 13/1/11 20/1/10 12/1/10
f 20/1/10 13/1/11 21/1/11
f 14/1/12 21/1/11 13/1/11
f 21/1/11 14/1/12 22/1/12
f 15/1/1 9/1/1 7/1/1
f 9/1/1 15/1/1 16/1/1
f 9/1/13 22/1/13 14/1/13
f 22/1/13 9/1/13 16/1/13
f 25/1/15 24/1/14 23/1/14
f 24/1/14 25/1/15 26/1/15
f 27/1/3 26/1/15 25/1/15
f 26/1/15 27/1/3 28/1/3
f 27/1/3 29/1/16 28/1/3
f 29/1/16 27/1/3 30/1/16
f 30/1/16 31/1/17 29/1/16
f 31/1/17 30/1/16 32/1/17
f 33/1/18 23/1/14 24/1/14
f 23/1/14 33/1/18 34/1/18
f 32/1/17 35/1/19 31/1/17
f 35/1/19 32/1/17 36/1/19
f 37/1/5 34/1/5 33/1/5
f 34/1/5 37/1/5 38/1/5
f 38/1/2 23/1/2 34/1/2
f 23/1/2 38/1/2 25/1/2
f 25/1/2 38/1/2 27/1/2
f 27/1/2 38/1/2 30/1/2
f 30/1/2 38/1/2 32/1/2
f 32/1/2 38/1/2 36/1/2
f 37/1/1 36/1/1 38/1/1
f 36/1/1 37/1/1 35/1/1
f 37/1/4 31/1/4 35/1/4
f 31/1/4 37/1/4 29/1/4
f 29/1/4 37/1/4 28/1/4
f 28/1/4 37/1/4 26/1/4
f 26/1/4 37/1/4 24/1/4
f 24/1/4 37/1/4 33/1/4
f 41/1/12 40/1/11 39/1/11
f 40/1/11 41/1/12 42/1/12
f 43/1/10 39/1/11 40/1/11
f 39/1/11 43/1/10 44/1/10
f 45/1/9 44/1/10 43/1/10
f 44/1/10 45/1/9 46/1/9
f 45/1/9 47/1/8 46/1/9
f 47/1/8 45/1/9 48/1/8
f 48/1/8 49/1/6 47/1/8
f 49/1/6 48/1/8 50/1/6
f 50/1/6 51/1/7 49/1/6
f 51/1/7 50/1/6 52/1/7
f 41/1/1 53/1/1 42/1/1
f 53/1/1 41/1/1 54/1/1
f 53/1/13 51/1/13 52/1/13
f 51/1/13 53/1/13 54/1/13
f 53/1/2 40/1/2 42/1/2
f 40/1/2 53/1/2 43/1/2
f 43/1/2 53/1/2 45/1/2
f 45/1/2 53/1/2 48/1/2
f 48/1/2 53/1/2 50/1/2
f 50/1/2 53/1/2 52/1/2
f 39/1/4 54/1/4 41/1/4
f 54/1/4 39/1/4 44/1/4
f 54/1/4 44/1/4 46/1/4
f 54/1/4 46/1/4 47/1/4
f 54/1/4 47/1/4 49/1/4
f 54/1/4 49/1/4 51/1/4
f 57/1/1 56/1/1 55/1/1
f 56/1/1 57/1/1 58/1/1
f 56/1/2 2/1/2 55/1/2
f 56/1/3 4/1/3 2/1/3
f 4/1/3 56/1/3 58/1/3
f 58/1/4 57/1/4 4/1/4
f 57/1/5 2/1/5 4/1/5
f 2/1/5 57/1/5 55/1/5
f 61/1/15 60/1/20 59/1/20
f 60/1/20 61/1/15 62/1/15
f 63/1/21 62/1/15 61/1/15
f 62/1/15 63/1/21 64/1/21
f 63/1/21 65/1/16 64/1/21
f 65/1/16 63/1/21 66/1/16
f 66/1/16 67/1/22 65/1/16
f 67/1/22 66/1/16 68/1/22
f 69/1/18 59/1/20 60/1/20
f 59/1/20 69/1/18 70/1/18
f 68/1/22 71/1/19 67/1/22
f 71/1/19 68/1/22 72/1/19
f 73/1/5 70/1/5 69/1/5
f 70/1/5 73/1/5 74/1/5
f 74/1/2 59/1/2 70/1/2
f 59/1/2 74/1/2 61/1/2
f 61/1/2 74/1/2 63/1/2
f 63/1/2 74/1/2 66/1/2
f 66/1/2 74/1/2 68/1/2
f 68/1/2 74/1/2 72/1/2
f 73/1/1 72/1/1 74/1/1
f 72/1/1 73/1/1 71/1/1
f 73/1/4 67/1/4 71/1/4
f 67/1/4 73/1/4 65/1/4
f 65/1/4 73/1/4 64/1/4
f 64/1/4 73/1/4 62/1/4
f 62/1/4 73/1/4 60/1/4
f 60/1/4 73/1/4 69/1/4
f 77/1/12 76/1/23 75/1/23
f 76/1/23 77/1/12 78/1/12
f 79/1/10 75/1/23 76/1/23
f 75/1/23 79/1/10 80/1/10
f 81/1/24 80/1/10 79/1/10
f 80/1/10 81/1/24 82/1/24
f 81/1/24 83/1/8 82/1/24
f 83/1/8 81/1/24 84/1/8
f 84/1/8 85/1/25 83/1/8
f 85/1/25 84/1/8 86/1/25
f 86/1/25 69/1/7 85/1/25
f 69/1/7 86/1/25 70/1/7
f 77/1/1 74/1/1 78/1/1
f 74/1/1 77/1/1 73/1/1
f 74/1/13 69/1/13 70/1/13
f 69/1/13 74/1/13 73/1/13
f 74/1/2 76/1/2 78/1/2
f 76/1/2 74/1/2 79/1/2
f 79/1/2 74/1/2 81/1/2
f 81/1/2 74/1/2 84/1/2
f 84/1/2 74/1/2 86/1/2
f 86/1/2 74/1/2 70/1/2
f 75/1/4 73/1/4 77/1/4
f 73/1/4 75/1/4 80/1/4
f 73/1/4 80/1/4 82/1/4
f 73/1/4 82/1/4 83/1/4
f 73/1/4 83/1/4 85/1/4
f 73/1/4 85/1/4 69/1/4
f 87/1/5 42/1/5 41/1/5
f 42/1/5 87/1/5 88/1/5
f 91/1/13 90/1/13 89/1/13
f 90/1/13 91/1/13 92/1/13
f 91/1/2 42/1/2 88/1/2
f 42/1/2 91/1/2 89/1/2
f 87/1/1 91/1/1 88/1/1
f 91/1/1 87/1/1 92/1/1
f 41/1/4 92/1/4 87/1/4
f 92/1/4 41/1/4 90/1/4
f 90/1/26 42/1/26 89/1/26
f 42/1/26 90/1/26 41/1/26
f 93/1/5 55/1/5 57/1/5
f 55/1/5 93/1/5 94/1/5
f 58/1/4 93/1/4 57/1/4
f 56/1/2 55/1/2 94/1/2
f 58/1/26 55/1/26 56/1/26
f 55/1/26 58/1/26 57/1/26
f 93/1/27 56/1/27 94/1/27
f 56/1/27 93/1/27 58/1/27
f 95/1/5 74/1/5 73/1/5
f 74/1/5 95/1/5 96/1/5
f 71/1/26 74/1/26 72/1/26
f 74/1/26 71/1/26 73/1/26
f 96/1/29 98/1/28 97/1/28
f 98/1/28 96/1/29 95/1/29
f 99/1/30 97/1/28 98/1/28
f 97/1/28 99/1/30 100/1/30
f 101/1/31 100/1/30 99/1/30
f 100/1/30 101/1/31 102/1/31
f 101/1/31 103/1/32 102/1/31
f 103/1/32 101/1/31 104/1/32
f 104/1/32 105/1/33 103/1/32
f 105/1/33 104/1/32 106/1/33
f 106/1/33 72/1/34 105/1/33
f 72/1/34 106/1/33 71/1/34
f 97/1/2 74/1/2 96/1/2
f 74/1/2 97/1/2 100/1/2
f 74/1/2 100/1/2 102/1/2
f 74/1/2 102/1/2 103/1/2
f 74/1/2 103/1/2 105/1/2
f 74/1/2 105/1/2 72/1/2
f 73/1/4 98/1/4 95/1/4
f 98/1/4 73/1/4 99/1/4
f 99/1/4 73/1/4 101/1/4
f 101/1/4 73/1/4 104/1/4
f 104/1/4 73/1/4 106/1/4
f 106/1/4 73/1/4 71/1/4
f 109/1/36 108/1/35 107/1/35
f 108/1/35 109/1/36 110/1/36
f 111/1/37 107/1/35 108/1/35
f 107/1/35 111/1/37 112/1/37
f 78/1/38 112/1/37 111/1/37
f 112/1/37 78/1/38 77/1/38
f 109/1/36 113/1/39 110/1/36
f 113/1/39 109/1/36 114/1/39
f 114/1/39 115/1/40 113/1/39
f 115/1/40 114/1/39 116/1/40
f 116/1/40 96/1/41 115/1/40
f 96/1/41 116/1/40 95/1/41
f 96/1/13 73/1/13 74/1/13
f 73/1/13 96/1/13 95/1/13
f 73/1/26 78/1/26 74/1/26
f 78/1/26 73/1/26 77/1/26
f 111/1/2 74/1/2 78/1/2
f 74/1/2 111/1/2 108/1/2
f 74/1/2 108/1/2 110/1/2
f 74/1/2 110/1/2 113/1/2
f 74/1/2 113/1/2 115/1/2
f 74/1/2 115/1/2 96/1/2
f 73/1/4 112/1/4 77/1/4
f 112/1/4 73/1/4 107/1/4
f 107/1/4 73/1/4 109/1/4
f 109/1/4 73/1/4 114/1/4
f 114/1/4 73/1/4 116/1/4
f 116/1/4 73/1/4 95/1/4
f 117/1/5 88/1/5 87/1/5
f 88/1/5 117/1/5 118/1/5
f 119/1/13 92/1/13 91/1/13
f 92/1/13 119/1/13 120/1/13
f 119/1/2 88/1/2 118/1/2
f 88/1/2 119/1/2 91/1/2
f 117/1/1 119/1/1 118/1/1
f 119/1/1 117/1/1 120/1/1
f 87/1/4 120/1/4 117/1/4
f 120/1/4 87/1/4 92/1/4
f 92/1/26 121/1/26 91/1/26
f 121/1/26 92/1/26 122/1/26
f 125/1/5 124/1/5 123/1/5
f 124/1/5 125/1/5 126/1/5
f 93/1/4 125/1/4 123/1/4
f 94/1/2 124/1/2 126/1/2
f 93/1/26 124/1/26 94/1/26
f 124/1/26 93/1/26 123/1/26
f 125/1/27 94/1/27 126/1/27
f 94/1/27 125/1/27 93/1/27
f 129/1/4 128/1/4 127/1/4
f 128/1/4 129/1/4 130/1/4
f 130/1/4 129/1/4 131/1/4
f 131/1/4 129/1/4 132/1/4
f 132/1/4 129/1/4 133/1/4
f 133/1/4 129/1/4 134/1/4
f 130/1/39 136/1/42 135/1/39
f 136/1/42 130/1/39 131/1/42
f 132/1/35 136/1/42 131/1/42
f 136/1/42 132/1/35 137/1/35
f 133/1/43 137/1/35 132/1/35
f 137/1/35 133/1/43 138/1/43
f 135/1/39 128/1/44 130/1/39
f 128/1/44 135/1/39 139/1/44
f 139/1/44 127/1/41 128/1/44
f 127/1/41 139/1/44 140/1/41
f 134/1/38 138/1/43 133/1/43
f 138/1/43 134/1/38 141/1/38
f 139/1/2 142/1/2 140/1/2
f 142/1/2 139/1/2 135/1/2
f 142/1/2 135/1/2 136/1/2
f 142/1/2 136/1/2 137/1/2
f 142/1/2 137/1/2 138/1/2
f 142/1/2 138/1/2 141/1/2
f 129/1/26 140/1/26 142/1/26
f 140/1/26 129/1/26 127/1/26
f 141/1/13 129/1/13 142/1/13
f 129/1/13 141/1/13 134/1/13
f 145/1/5 144/1/5 143/1/5
f 144/1/5 145/1/5 146/1/5
f 148/1/26 144/1/26 147/1/26
f 144/1/26 148/1/26 143/1/26
f 146/1/29 150/1/45 149/1/45
f 150/1/45 146/1/29 145/1/29
f 151/1/30 149/1/45 150/1/45
f 149/1/45 151/1/30 152/1/30
f 153/1/27 152/1/30 151/1/30
f 152/1/30 153/1/27 154/1/27
f 153/1/27 155/1/32 154/1/27
f 155/1/32 153/1/27 156/1/32
f 156/1/32 157/1/46 155/1/32
f 157/1/46 156/1/32 158/1/46
f 158/1/46 147/1/34 157/1/46
f 147/1/34 158/1/46 148/1/34
f 149/1/2 144/1/2 146/1/2
f 144/1/2 149/1/2 152/1/2
f 144/1/2 152/1/2 154/1/2
f 144/1/2 154/1/2 155/1/2
f 144/1/2 155/1/2 157/1/2
f 144/1/2 157/1/2 147/1/2
f 143/1/4 150/1/4 145/1/4
f 150/1/4 143/1/4 151/1/4
f 151/1/4 143/1/4 153/1/4
f 153/1/4 143/1/4 156/1/4
f 156/1/4 143/1/4 158/1/4
f 158/1/4 143/1/4 148/1/4
f 161/1/42 160/1/35 159/1/35
f 160/1/35 161/1/42 162/1/42
f 163/1/43 159/1/35 160/1/35
f 159/1/35 163/1/43 164/1/43
f 165/1/38 164/1/43 163/1/43
f 164/1/43 165/1/38 166/1/38
f 161/1/42 167/1/39 162/1/42
f 167/1/39 161/1/42 168/1/39
f 168/1/39 169/1/44 167/1/39
f 169/1/44 168/1/39 170/1/44
f 170/1/44 171/1/41 169/1/44
f 171/1/41 170/1/44 172/1/41
f 171/1/13 174/1/13 173/1/13
f 174/1/13 171/1/13 172/1/13
f 174/1/26 165/1/26 173/1/26
f 165/1/26 174/1/26 166/1/26
f 163/1/2 173/1/2 118/1/2
f 173/1/2 163/1/2 160/1/2
f 173/1/2 160/1/2 162/1/2
f 173/1/2 162/1/2 167/1/2
f 173/1/2 167/1/2 169/1/2
f 173/1/2 169/1/2 171/1/2
f 174/1/4 164/1/4 117/1/4
f 164/1/4 174/1/4 159/1/4
f 159/1/4 174/1/4 161/1/4
f 161/1/4 174/1/4 168/1/4
f 168/1/4 174/1/4 170/1/4
f 170/1/4 174/1/4 172/1/4
f 127/1/5 7/1/5 15/1/5
f 7/1/5 127/1/5 140/1/5
f 127/1/1 94/1/1 140/1/1
f 94/1/1 127/1/1 93/1/1
f 94/1/2 7/1/2 140/1/2
f 7/1/2 94/1/2 2/1/2
f 4/1/4 127/1/4 15/1/4
f 127/1/4 4/1/4 93/1/4
f 4/1/26 7/1/26 2/1/26
f 7/1/26 4/1/26 15/1/26
f 94/1/13 4/1/13 2/1/13
f 4/1/13 94/1/13 93/1/13
f 16/1/5 14/1/5 22/1/5
f 14/1/5 16/1/5 9/1/5
f 16/1/1 1/1/1 9/1/1
f 1/1/1 16/1/1 3/1/1
f 1/1/2 14/1/2 9/1/2
f 14/1/2 1/1/2 5/1/2
f 6/1/4 16/1/4 22/1/4
f 16/1/4 6/1/4 3/1/4
f 6/1/26 14/1/26 5/1/26
f 14/1/26 6/1/26 22/1/26
f 1/1/13 6/1/13 5/1/13
f 6/1/13 1/1/13 3/1/13
f 134/1/5 142/1/5 129/1/5
f 142/1/5 134/1/5 141/1/5
f 134/1/1 126/1/1 141/1/1
f 126/1/1 134/1/1 125/1/1
f 126/1/2 142/1/2 141/1/2
f 142/1/2 126/1/2 124/1/2
f 123/1/4 134/1/4 129/1/4
f 134/1/4 123/1/4 125/1/4
f 123/1/26 142/1/26 124/1/26
f 142/1/26 123/1/26 129/1/26
f 126/1/13 123/1/13 124/1/13
f 123/1/13 126/1/13 125/1/13
f 54/1/5 52/1/5 51/1/5
f 52/1/5 54/1/5 53/1/5
f 54/1/1 38/1/1 53/1/1
f 38/1/1 54/1/1 37/1/1
f 38/1/2 52/1/2 53/1/2
f 52/1/2 38/1/2 34/1/2
f 33/1/4 54/1/4 51/1/4
f 54/1/4 33/1/4 37/1/4
f 33/1/26 52/1/26 34/1/26
f 52/1/26 33/1/26 51/1/26
f 38/1/13 33/1/13 34/1/13
f 33/1/13 38/1/13 37/1/13
f 172/1/5 173/1/5 174/1/5
f 173/1/5 172/1/5 171/1/5
f 172/1/1 146/1/1 171/1/1
f 146/1/1 172/1/1 145/1/1
f 146/1/2 173/1/2 171/1/2
f 173/1/2 146/1/2 144/1/2
f 143/1/4 172/1/4 174/1/4
f 172/1/4 143/1/4 145/1/4
f 143/1/26 173/1/26 144/1/26
f 173/1/26 143/1/26 174/1/26
f 146/1/13 143/1/13 144/1/13
f 143/1/13 146/1/13 145/1/13

