# Created by Kenney (www.kenney.nl)

mtllib suelo_arena_escena1.mtl

v 5 -2 -0.5
v 6 -2 -0.5
v 5 -1.5 -0.5
v 5.129409 -1.482963 -0.5
v 5.25 -1.433013 -0.5
v 6 -1 -0.5
v 5.353553 -1.353553 -0.5
v 5.433012 -1.25 -0.5
v 5.482963 -1.12941 -0.5
v 5.5 -1 -0.5
v 5.433012 -1.25 0.5
v 5.482963 -1.12941 0.5
v 5.353553 -1.353553 0.5
v 5.25 -1.433013 0.5
v 5.129409 -1.482963 0.5
v 5 -1.5 0.5
v 5.5 -1 0.5
v 6 -2 0.5
v 5 -2 0.5
v 6 -1 0.5
v 4 -2 -0.5
v 4.870591 -1.482963 -0.5
v 4.75 -1.433013 -0.5
v 4 -1 -0.5
v 4.646447 -1.353553 -0.5
v 4.566988 -1.25 -0.5
v 4.517037 -1.12941 -0.5
v 4.5 -1 -0.5
v 4.870591 -1.482963 0.5
v 4.75 -1.433013 0.5
v 4.646447 -1.353553 0.5
v 4.566988 -1.25 0.5
v 4.517037 -1.12941 0.5
v 4.5 -1 0.5
v 4 -2 0.5
v 4 -1 0.5
v 8 -2 0.5
v 8 -2 -0.5
v 8 -1 -0.5
v 8 -1 0.5
v -8 -2 0.5
v -8 -2 -0.5
v -8 -1 -0.5
v -8 -1 0.5
v 8 -7 1
v 8 -7 -1
v 7 -7 1
v 7 -7 -1
v 7 -2 -1
v 7 -2 1
v 8 -2 -1
v 8 -2 1
v 7 -3 1
v 7 -3 -1
v 3 -3 1
v 3 -3 -1
v 3 -2 -1
v 3 -2 1
v 2 -7 1
v 2 -7 -1
v 1 -7 1
v 1 -7 -1
v 1 -2 -1
v 1 -2 1
v 2 -2 -1
v 2 -2 1
v 1 -3 1
v 1 -3 -1
v -1 -3 1
v -1 -3 -1
v -1 -2 -1
v -1 -2 1
v -2 -7 1
v -2 -7 -1
v -5 -7 1
v -5 -7 -1
v -5 -2 -1
v -5 -2 1
v -2 -2 -1
v -2 -2 1
v -5 -3 1
v -5 -3 -1
v -6 -3 1
v -6 -3 -1
v -6 -2 -1
v -6 -2 1
v -7 -7 1
v -7 -7 -1
v -8 -7 1
v -8 -7 -1
v -8 -2 -1
v -8 -2 1
v -7 -2 -1
v -7 -2 1
v 6 -7 1
v 6 -7 -1
v 2 -3 -1
v 2 -3 1
v 6 -3 -1
v 6 -3 1
v 1 -5 1
v 1 -5 -1
v -2 -5 1
v -2 -5 -1
v -2 -3 -1
v -2 -3 1
v -5 -5 1
v -5 -5 -1
v -7 -5 1
v -7 -5 -1
v -7 -3 -1
v -7 -3 1
v 6 -4 -1
v 6 -4 1
v 7 -4 -1
v 7 -4 1
v 0 -7 1
v 0 -7 -1
v 0 -5 -1
v 0 -5 1
v -6 -7 1
v -6 -7 -1
v -6 -5 -1
v -6 -5 1
v 0 -6 -1
v 0 -6 1
v 1 -6 -1
v 1 -6 1
v -6 -6 -1
v -6 -6 1
v -5 -6 -1
v -5 -6 1

vn 0 0 -1
vn -0.8660254 0.5 0
vn -0.9659258 0.258819 0
vn -0.7071068 0.7071068 0
vn -0.5 0.8660254 0
vn -0.258819 0.9659258 0
vn -0.1305262 0.9914449 0
vn -0.9914449 0.1305262 0
vn 0 0 1
vn 0 -1 0
vn 1 0 0
vn 0 1 0
vn -1 0 0
vn 0.2588191 0.9659258 0
vn 0.5 0.8660254 0
vn 0.1305262 0.9914449 0
vn 0.7071068 0.7071068 0
vn 0.8660254 0.5 0
vn 0.9659258 0.258819 0
vn 0.9914449 0.1305262 0

vt 0 0

usemtl color5

f 3/1/1 2/1/1 1/1/1
f 2/1/1 3/1/1 4/1/1
f 2/1/1 4/1/1 5/1/1
f 2/1/1 5/1/1 6/1/1
f 6/1/1 5/1/1 7/1/1
f 6/1/1 7/1/1 8/1/1
f 6/1/1 8/1/1 9/1/1
f 6/1/1 9/1/1 10/1/1
f 11/1/2 9/1/3 8/1/2
f 9/1/3 11/1/2 12/1/3
f 8/1/2 13/1/4 11/1/2
f 13/1/4 8/1/2 7/1/4
f 5/1/5 13/1/4 7/1/4
f 13/1/4 5/1/5 14/1/5
f 4/1/6 14/1/5 5/1/5
f 14/1/5 4/1/6 15/1/6
f 3/1/7 15/1/6 4/1/6
f 15/1/6 3/1/7 16/1/7
f 12/1/3 10/1/8 9/1/3
f 10/1/8 12/1/3 17/1/8
f 20/1/9 19/1/9 18/1/9
f 19/1/9 20/1/9 14/1/9
f 19/1/9 14/1/9 15/1/9
f 19/1/9 15/1/9 16/1/9
f 14/1/9 20/1/9 13/1/9
f 13/1/9 20/1/9 11/1/9
f 11/1/9 20/1/9 12/1/9
f 12/1/9 20/1/9 17/1/9
f 19/1/10 2/1/10 18/1/10
f 2/1/10 19/1/10 1/1/10
f 20/1/11 2/1/11 6/1/11
f 2/1/11 20/1/11 18/1/11
f 10/1/12 20/1/12 6/1/12
f 20/1/12 10/1/12 17/1/12
f 19/1/13 3/1/13 1/1/13
f 3/1/13 19/1/13 16/1/13
f 21/1/1 3/1/1 1/1/1
f 3/1/1 21/1/1 22/1/1
f 22/1/1 21/1/1 23/1/1
f 23/1/1 21/1/1 24/1/1
f 23/1/1 24/1/1 25/1/1
f 25/1/1 24/1/1 26/1/1
f 26/1/1 24/1/1 27/1/1
f 27/1/1 24/1/1 28/1/1
f 23/1/15 29/1/14 22/1/14
f 29/1/14 23/1/15 30/1/15
f 16/1/16 22/1/14 29/1/14
f 22/1/14 16/1/16 3/1/16
f 25/1/17 30/1/15 23/1/15
f 30/1/15 25/1/17 31/1/17
f 25/1/17 32/1/18 31/1/17
f 32/1/18 25/1/17 26/1/18
f 26/1/18 33/1/19 32/1/18
f 33/1/19 26/1/18 27/1/19
f 27/1/19 34/1/20 33/1/19
f 34/1/20 27/1/19 28/1/20
f 16/1/9 35/1/9 19/1/9
f 35/1/9 16/1/9 29/1/9
f 35/1/9 29/1/9 30/1/9
f 35/1/9 30/1/9 36/1/9
f 36/1/9 30/1/9 31/1/9
f 36/1/9 31/1/9 32/1/9
f 36/1/9 32/1/9 33/1/9
f 36/1/9 33/1/9 34/1/9
f 35/1/13 24/1/13 21/1/13
f 24/1/13 35/1/13 36/1/13
f 35/1/10 1/1/10 19/1/10
f 1/1/10 35/1/10 21/1/10
f 3/1/11 19/1/11 1/1/11
f 19/1/11 3/1/11 16/1/11
f 24/1/12 34/1/12 28/1/12
f 34/1/12 24/1/12 36/1/12
f 18/1/10 38/1/10 37/1/10
f 38/1/10 18/1/10 2/1/10
f 18/1/13 6/1/13 2/1/13
f 6/1/13 18/1/13 20/1/13
f 6/1/1 38/1/1 2/1/1
f 38/1/1 6/1/1 39/1/1
f 40/1/9 18/1/9 37/1/9
f 18/1/9 40/1/9 20/1/9
f 40/1/11 38/1/11 39/1/11
f 38/1/11 40/1/11 37/1/11
f 6/1/12 40/1/12 39/1/12
f 40/1/12 6/1/12 20/1/12
f 41/1/10 21/1/10 35/1/10
f 21/1/10 41/1/10 42/1/10
f 41/1/13 43/1/13 42/1/13
f 43/1/13 41/1/13 44/1/13
f 43/1/1 21/1/1 42/1/1
f 21/1/1 43/1/1 24/1/1
f 36/1/9 41/1/9 35/1/9
f 41/1/9 36/1/9 44/1/9
f 36/1/11 21/1/11 24/1/11
f 21/1/11 36/1/11 35/1/11
f 43/1/12 36/1/12 24/1/12
f 36/1/12 43/1/12 44/1/12
f 47/1/10 46/1/10 45/1/10
f 46/1/10 47/1/10 48/1/10
f 47/1/13 49/1/13 48/1/13
f 49/1/13 47/1/13 50/1/13
f 49/1/1 46/1/1 48/1/1
f 46/1/1 49/1/1 51/1/1
f 52/1/9 47/1/9 45/1/9
f 47/1/9 52/1/9 50/1/9
f 52/1/11 46/1/11 51/1/11
f 46/1/11 52/1/11 45/1/11
f 49/1/12 52/1/12 51/1/12
f 52/1/12 49/1/12 50/1/12
f 55/1/10 54/1/10 53/1/10
f 54/1/10 55/1/10 56/1/10
f 55/1/13 57/1/13 56/1/13
f 57/1/13 55/1/13 58/1/13
f 57/1/1 54/1/1 56/1/1
f 54/1/1 57/1/1 49/1/1
f 50/1/9 55/1/9 53/1/9
f 55/1/9 50/1/9 58/1/9
f 50/1/11 54/1/11 49/1/11
f 54/1/11 50/1/11 53/1/11
f 57/1/12 50/1/12 49/1/12
f 50/1/12 57/1/12 58/1/12
f 61/1/10 60/1/10 59/1/10
f 60/1/10 61/1/10 62/1/10
f 61/1/13 63/1/13 62/1/13
f 63/1/13 61/1/13 64/1/13
f 63/1/1 60/1/1 62/1/1
f 60/1/1 63/1/1 65/1/1
f 66/1/9 61/1/9 59/1/9
f 61/1/9 66/1/9 64/1/9
f 66/1/11 60/1/11 65/1/11
f 60/1/11 66/1/11 59/1/11
f 63/1/12 66/1/12 65/1/12
f 66/1/12 63/1/12 64/1/12
f 69/1/10 68/1/10 67/1/10
f 68/1/10 69/1/10 70/1/10
f 69/1/13 71/1/13 70/1/13
f 71/1/13 69/1/13 72/1/13
f 71/1/1 68/1/1 70/1/1
f 68/1/1 71/1/1 63/1/1
f 64/1/9 69/1/9 67/1/9
f 69/1/9 64/1/9 72/1/9
f 64/1/11 68/1/11 63/1/11
f 68/1/11 64/1/11 67/1/11
f 71/1/12 64/1/12 63/1/12
f 64/1/12 71/1/12 72/1/12
f 75/1/10 74/1/10 73/1/10
f 74/1/10 75/1/10 76/1/10
f 75/1/13 77/1/13 76/1/13
f 77/1/13 75/1/13 78/1/13
f 77/1/1 74/1/1 76/1/1
f 74/1/1 77/1/1 79/1/1
f 80/1/9 75/1/9 73/1/9
f 75/1/9 80/1/9 78/1/9
f 80/1/11 74/1/11 79/1/11
f 74/1/11 80/1/11 73/1/11
f 77/1/12 80/1/12 79/1/12
f 80/1/12 77/1/12 78/1/12
f 83/1/10 82/1/10 81/1/10
f 82/1/10 83/1/10 84/1/10
f 83/1/13 85/1/13 84/1/13
f 85/1/13 83/1/13 86/1/13
f 85/1/1 82/1/1 84/1/1
f 82/1/1 85/1/1 77/1/1
f 78/1/9 83/1/9 81/1/9
f 83/1/9 78/1/9 86/1/9
f 78/1/11 82/1/11 77/1/11
f 82/1/11 78/1/11 81/1/11
f 85/1/12 78/1/12 77/1/12
f 78/1/12 85/1/12 86/1/12
f 89/1/10 88/1/10 87/1/10
f 88/1/10 89/1/10 90/1/10
f 89/1/13 91/1/13 90/1/13
f 91/1/13 89/1/13 92/1/13
f 91/1/1 88/1/1 90/1/1
f 88/1/1 91/1/1 93/1/1
f 94/1/9 89/1/9 87/1/9
f 89/1/9 94/1/9 92/1/9
f 94/1/11 88/1/11 93/1/11
f 88/1/11 94/1/11 87/1/11
f 91/1/12 94/1/12 93/1/12
f 94/1/12 91/1/12 92/1/12
f 59/1/10 96/1/10 95/1/10
f 96/1/10 59/1/10 60/1/10
f 59/1/13 97/1/13 60/1/13
f 97/1/13 59/1/13 98/1/13
f 97/1/1 96/1/1 60/1/1
f 96/1/1 97/1/1 99/1/1
f 100/1/9 59/1/9 95/1/9
f 59/1/9 100/1/9 98/1/9
f 100/1/11 96/1/11 99/1/11
f 96/1/11 100/1/11 95/1/11
f 97/1/12 100/1/12 99/1/12
f 100/1/12 97/1/12 98/1/12
f 103/1/10 102/1/10 101/1/10
f 102/1/10 103/1/10 104/1/10
f 103/1/13 105/1/13 104/1/13
f 105/1/13 103/1/13 106/1/13
f 105/1/1 102/1/1 104/1/1
f 102/1/1 105/1/1 68/1/1
f 67/1/9 103/1/9 101/1/9
f 103/1/9 67/1/9 106/1/9
f 67/1/11 102/1/11 68/1/11
f 102/1/11 67/1/11 101/1/11
f 105/1/12 67/1/12 68/1/12
f 67/1/12 105/1/12 106/1/12
f 109/1/10 108/1/10 107/1/10
f 108/1/10 109/1/10 110/1/10
f 109/1/13 111/1/13 110/1/13
f 111/1/13 109/1/13 112/1/13
f 111/1/1 108/1/1 110/1/1
f 108/1/1 111/1/1 82/1/1
f 81/1/9 109/1/9 107/1/9
f 109/1/9 81/1/9 112/1/9
f 81/1/11 108/1/11 82/1/11
f 108/1/11 81/1/11 107/1/11
f 111/1/12 81/1/12 82/1/12
f 81/1/12 111/1/12 112/1/12
f 95/1/10 48/1/10 47/1/10
f 48/1/10 95/1/10 96/1/10
f 95/1/13 113/1/13 96/1/13
f 113/1/13 95/1/13 114/1/13
f 113/1/1 48/1/1 96/1/1
f 48/1/1 113/1/1 115/1/1
f 116/1/9 95/1/9 47/1/9
f 95/1/9 116/1/9 114/1/9
f 116/1/11 48/1/11 115/1/11
f 48/1/11 116/1/11 47/1/11
f 113/1/12 116/1/12 115/1/12
f 116/1/12 113/1/12 114/1/12
f 73/1/10 118/1/10 117/1/10
f 118/1/10 73/1/10 74/1/10
f 73/1/13 104/1/13 74/1/13
f 104/1/13 73/1/13 103/1/13
f 104/1/1 118/1/1 74/1/1
f 118/1/1 104/1/1 119/1/1
f 120/1/9 73/1/9 117/1/9
f 73/1/9 120/1/9 103/1/9
f 120/1/11 118/1/11 119/1/11
f 118/1/11 120/1/11 117/1/11
f 104/1/12 120/1/12 119/1/12
f 120/1/12 104/1/12 103/1/12
f 87/1/10 122/1/10 121/1/10
f 122/1/10 87/1/10 88/1/10
f 87/1/13 110/1/13 88/1/13
f 110/1/13 87/1/13 109/1/13
f 110/1/1 122/1/1 88/1/1
f 122/1/1 110/1/1 123/1/1
f 124/1/9 87/1/9 121/1/9
f 87/1/9 124/1/9 109/1/9
f 124/1/11 122/1/11 123/1/11
f 122/1/11 124/1/11 121/1/11
f 110/1/12 124/1/12 123/1/12
f 124/1/12 110/1/12 109/1/12
f 117/1/10 62/1/10 61/1/10
f 62/1/10 117/1/10 118/1/10
f 117/1/13 125/1/13 118/1/13
f 125/1/13 117/1/13 126/1/13
f 125/1/1 62/1/1 118/1/1
f 62/1/1 125/1/1 127/1/1
f 128/1/9 117/1/9 61/1/9
f 117/1/9 128/1/9 126/1/9
f 128/1/11 62/1/11 127/1/11
f 62/1/11 128/1/11 61/1/11
f 125/1/12 128/1/12 127/1/12
f 128/1/12 125/1/12 126/1/12
f 121/1/10 76/1/10 75/1/10
f 76/1/10 121/1/10 122/1/10
f 121/1/13 129/1/13 122/1/13
f 129/1/13 121/1/13 130/1/13
f 129/1/1 76/1/1 122/1/1
f 76/1/1 129/1/1 131/1/1
f 132/1/9 121/1/9 75/1/9
f 121/1/9 132/1/9 130/1/9
f 132/1/11 76/1/11 131/1/11
f 76/1/11 132/1/11 75/1/11
f 129/1/12 132/1/12 131/1/12
f 132/1/12 129/1/12 130/1/12
f 55/1/10 54/1/10 53/1/10
f 54/1/10 55/1/10 56/1/10
f 55/1/13 57/1/13 56/1/13
f 57/1/13 55/1/13 58/1/13
f 57/1/1 54/1/1 56/1/1
f 54/1/1 57/1/1 49/1/1
f 50/1/9 55/1/9 53/1/9
f 55/1/9 50/1/9 58/1/9
f 50/1/11 54/1/11 49/1/11
f 54/1/11 50/1/11 53/1/11
f 57/1/12 50/1/12 49/1/12
f 50/1/12 57/1/12 58/1/12
f 69/1/10 68/1/10 67/1/10
f 68/1/10 69/1/10 70/1/10
f 69/1/13 71/1/13 70/1/13
f 71/1/13 69/1/13 72/1/13
f 71/1/1 68/1/1 70/1/1
f 68/1/1 71/1/1 63/1/1
f 64/1/9 69/1/9 67/1/9
f 69/1/9 64/1/9 72/1/9
f 64/1/11 68/1/11 63/1/11
f 68/1/11 64/1/11 67/1/11
f 71/1/12 64/1/12 63/1/12
f 64/1/12 71/1/12 72/1/12
f 83/1/10 82/1/10 81/1/10
f 82/1/10 83/1/10 84/1/10
f 83/1/13 85/1/13 84/1/13
f 85/1/13 83/1/13 86/1/13
f 85/1/1 82/1/1 84/1/1
f 82/1/1 85/1/1 77/1/1
f 78/1/9 83/1/9 81/1/9
f 83/1/9 78/1/9 86/1/9
f 78/1/11 82/1/11 77/1/11
f 82/1/11 78/1/11 81/1/11
f 85/1/12 78/1/12 77/1/12
f 78/1/12 85/1/12 86/1/12

usemtl color4

f 98/1/10 56/1/10 55/1/10
f 56/1/10 98/1/10 97/1/10
f 98/1/13 65/1/13 97/1/13
f 65/1/13 98/1/13 66/1/13
f 65/1/1 56/1/1 97/1/1
f 56/1/1 65/1/1 57/1/1
f 58/1/9 98/1/9 55/1/9
f 98/1/9 58/1/9 66/1/9
f 58/1/11 56/1/11 57/1/11
f 56/1/11 58/1/11 55/1/11
f 65/1/12 58/1/12 57/1/12
f 58/1/12 65/1/12 66/1/12
f 106/1/10 70/1/10 69/1/10
f 70/1/10 106/1/10 105/1/10
f 106/1/13 79/1/13 105/1/13
f 79/1/13 106/1/13 80/1/13
f 79/1/1 70/1/1 105/1/1
f 70/1/1 79/1/1 71/1/1
f 72/1/9 106/1/9 69/1/9
f 106/1/9 72/1/9 80/1/9
f 72/1/11 70/1/11 71/1/11
f 70/1/11 72/1/11 69/1/11
f 79/1/12 72/1/12 71/1/12
f 72/1/12 79/1/12 80/1/12
f 112/1/10 84/1/10 83/1/10
f 84/1/10 112/1/10 111/1/10
f 112/1/13 93/1/13 111/1/13
f 93/1/13 112/1/13 94/1/13
f 93/1/1 84/1/1 111/1/1
f 84/1/1 93/1/1 85/1/1
f 86/1/9 112/1/9 83/1/9
f 112/1/9 86/1/9 94/1/9
f 86/1/11 84/1/11 85/1/11
f 84/1/11 86/1/11 83/1/11
f 93/1/12 86/1/12 85/1/12
f 86/1/12 93/1/12 94/1/12
f 114/1/10 115/1/10 116/1/10
f 115/1/10 114/1/10 113/1/10
f 114/1/13 99/1/13 113/1/13
f 99/1/13 114/1/13 100/1/13
f 99/1/1 115/1/1 113/1/1
f 115/1/1 99/1/1 54/1/1
f 53/1/9 114/1/9 116/1/9
f 114/1/9 53/1/9 100/1/9
f 53/1/11 115/1/11 54/1/11
f 115/1/11 53/1/11 116/1/11
f 99/1/12 53/1/12 54/1/12
f 53/1/12 99/1/12 100/1/12
f 126/1/10 127/1/10 128/1/10
f 127/1/10 126/1/10 125/1/10
f 126/1/13 119/1/13 125/1/13
f 119/1/13 126/1/13 120/1/13
f 119/1/1 127/1/1 125/1/1
f 127/1/1 119/1/1 102/1/1
f 101/1/9 126/1/9 128/1/9
f 126/1/9 101/1/9 120/1/9
f 101/1/11 127/1/11 102/1/11
f 127/1/11 101/1/11 128/1/11
f 119/1/12 101/1/12 102/1/12
f 101/1/12 119/1/12 120/1/12
f 130/1/10 131/1/10 132/1/10
f 131/1/10 130/1/10 129/1/10
f 130/1/13 123/1/13 129/1/13
f 123/1/13 130/1/13 124/1/13
f 123/1/1 131/1/1 129/1/1
f 131/1/1 123/1/1 108/1/1
f 107/1/9 130/1/9 132/1/9
f 130/1/9 107/1/9 124/1/9
f 107/1/11 131/1/11 108/1/11
f 131/1/11 107/1/11 132/1/11
f 123/1/12 107/1/12 108/1/12
f 107/1/12 123/1/12 124/1/12

